<?xml version="1.0" encoding="utf-8"?>
<!-- Generator: Adobe Illustrator 23.1.1, SVG Export Plug-In . SVG Version: 6.00 Build 0)  -->
<svg version="1.1" xmlns="http://www.w3.org/2000/svg" xmlns:xlink="http://www.w3.org/1999/xlink" x="0px" y="0px"
	 viewBox="0 0 1014.8 411.02" style="enable-background:new 0 0 1014.8 411.02;" xml:space="preserve">
<style type="text/css">
	.st0{fill:none;stroke:#000000;stroke-width:0.3;}
	.st1{fill:#101820;}
	.st2{fill:#EC9BAD;}
	.st3{display:none;}
	.st4{display:inline;}
	.st5{fill:none;stroke:#000000;stroke-width:0.25;stroke-miterlimit:10;}
	.st6{fill:none;stroke:#000000;stroke-width:0.25;stroke-miterlimit:10;stroke-dasharray:2.0004,2.0004;}
	.st7{fill:none;stroke:#000000;stroke-width:0.25;stroke-miterlimit:10;stroke-dasharray:2.0038,2.0038;}
	.st8{fill:none;stroke:#000000;stroke-width:0.25;stroke-miterlimit:10;stroke-dasharray:2.0039,2.0039;}
	.st9{fill:none;stroke:#000000;stroke-width:0.25;stroke-miterlimit:10;stroke-dasharray:2.0009,2.0009;}
	.st10{display:inline;fill:#D9D9D9;}
</style>
<g id="Layer_1">
	<g>
		<line class="st0" x1="0.96" y1="-54.14" x2="0.96" y2="-18.14"/>
		<line class="st0" x1="-53.04" y1="-0.14" x2="-17.04" y2="-0.14"/>
		<line class="st0" x1="-53.04" y1="409.96" x2="-17.04" y2="409.96"/>
		<line class="st0" x1="0.96" y1="463.96" x2="0.96" y2="427.96"/>
		<line class="st0" x1="1015.27" y1="-54.14" x2="1015.27" y2="-18.14"/>
		<line class="st0" x1="1069.27" y1="-0.14" x2="1033.27" y2="-0.14"/>
		<line class="st0" x1="1069.27" y1="409.96" x2="1033.27" y2="409.96"/>
		<line class="st0" x1="1015.27" y1="463.96" x2="1015.27" y2="427.96"/>
	</g>
	<path class="st1" d="M189.93,287.81h26.05c1.71,0,3.1-1.4,3.1-3.14v-55.95c0-0.15,0-0.54,0-0.69c0-12.34-3.96-22.22-11.47-29.02
		c-7.08-6.41-15.49-9.8-27.41-9.8c-4.4,0-8.63,0.69-12.6,1.94c-0.22,0.07-0.21,0.39,0.02,0.45c4.33,1.12,19.28,7.16,19.28,37.07
		c0,9.52-0.02,43.23-0.05,55.99C186.84,286.4,188.22,287.81,189.93,287.81z"/>
	<path class="st1" d="M258.44,287.81h26.05c1.71,0,3.1-1.4,3.1-3.14v-55.95c0-0.15,0-0.54,0-0.69c0-12.34-3.96-22.22-11.47-29.02
		c-7.08-6.41-15.49-9.8-27.41-9.8c-4.4,0-8.63,0.69-12.6,1.94c-0.22,0.07-0.21,0.39,0.02,0.45c4.33,1.12,19.28,7.16,19.28,37.07
		c0,9.52-0.02,43.23-0.05,55.99C255.34,286.4,256.72,287.81,258.44,287.81z"/>
	<path class="st1" d="M148.44,287.67h-25.23c-1.53,0-2.77-1.25-2.77-2.78V174.06h22.28c3.11,0,5.67,2.43,5.86,5.54l2.62,43.28v62
		C151.21,286.42,149.97,287.67,148.44,287.67z"/>
	<path class="st2" d="M214.51,149.39c0,0,42.76-61.27,94.83-8.92c0,0,22.74-28.4,54.67-5.57c1.12,0.8,0.51,2.58-0.87,2.59
		c-7.97,0.03-23.82-3.52-39.23,10.78c0,0,4.83,0.93,3.9,6.31c0,0-7.43-3.16-14.67,5.94c-7.24,9.1-13.55,7.61-18.94-0.56
		S266.98,122.66,214.51,149.39z"/>
	<path class="st1" d="M370.66,182.81c-31.37,0-56.81,24.27-56.81,54.21c0,29.94,25.43,54.21,56.81,54.21s56.81-24.27,56.81-54.21
		C427.46,207.08,402.03,182.81,370.66,182.81z M370.66,270.99c-17.12,0-31-15.29-31-34.16c0-18.86,13.42-33.79,30.54-33.79
		c17.12,0,31.47,14.92,31.47,33.79C401.66,255.69,387.78,270.99,370.66,270.99z"/>
	<path class="st1" d="M888.68,264.98h-45.44l21.69-28.5h0l21.84-28.7c0.09-0.14,0.18-0.28,0.3-0.44c5.48-7.33,6.4-10.67,6.4-13.95
		c0-2.1,0-4.98,0-6.93h-78.51c-3.43,0-6.22,2.78-6.22,6.22v16.48h46.62l-20.8,27.33h0l-22.73,29.87c-0.09,0.14-0.18,0.28-0.3,0.44
		c-5.48,7.33-6.4,10.67-6.4,13.95c0,2.1,0,4.98,0,6.93h89v-17.19C894.13,267.44,891.69,264.98,888.68,264.98z"/>
	<path class="st1" d="M498.63,182.81c-31.37,0-56.81,24.27-56.81,54.21c0,29.94,25.43,54.21,56.81,54.21s56.81-24.27,56.81-54.21
		C555.43,207.08,530,182.81,498.63,182.81z M498.63,270.99c-17.12,0-31-15.29-31-34.16c0-18.86,13.42-33.79,30.54-33.79
		s31.47,14.92,31.47,33.79C529.63,255.69,515.75,270.99,498.63,270.99z"/>
	<path class="st1" d="M622.19,287.74c1.02-0.01,1.94-0.62,2.35-1.55l43.2-98.95l-19.84,0.11c-3.24,0.02-7.05,2.59-8.68,5.86
		l-0.62,1.25l-24.79,56.17l-24.79-56.17l-0.62-1.25c-1.63-3.27-5.44-5.85-8.68-5.86l-19.84-0.11l43.2,98.95
		c0.4,0.94,1.33,1.55,2.35,1.55H622.19z"/>
	<path class="st1" d="M777.64,186.43h-19.77l-0.99,15.91c-0.96-2.21-9.25-19.21-37.71-19.21c-30.44,0-46.6,26.55-46.6,53.46
		s15.22,52.91,46.41,52.91c21.33,0,32.75-10.33,37.85-16.86l1.23,14.92h22.74c1.54,0,2.78-1.25,2.78-2.78v-92.41
		C783.58,189.09,780.92,186.43,777.64,186.43z M727.52,269.73c-16.2,0-29.33-14.96-29.33-33.42s13.13-33.42,29.33-33.42
		s28.68,14.96,28.68,33.42S743.72,269.73,727.52,269.73z"/>
</g>
<g id="Clearspace" class="st3">
	<g class="st4">
		<g>
			<line class="st5" x1="2.62" y1="117.32" x2="3.62" y2="117.32"/>
			<line class="st6" x1="5.62" y1="117.32" x2="1012.82" y2="117.32"/>
			<line class="st5" x1="1013.82" y1="117.32" x2="1014.82" y2="117.32"/>
		</g>
	</g>
	<g class="st4">
		<g>
			<line class="st5" x1="118.53" y1="0.52" x2="118.53" y2="1.52"/>
			<line class="st7" x1="118.53" y1="3.53" x2="118.53" y2="407.3"/>
			<line class="st5" x1="118.53" y1="408.3" x2="118.53" y2="409.3"/>
		</g>
	</g>
	<g class="st4">
		<g>
			<line class="st5" x1="896.26" y1="0.52" x2="896.26" y2="1.52"/>
			<line class="st7" x1="896.26" y1="3.53" x2="896.26" y2="407.3"/>
			<line class="st5" x1="896.26" y1="408.3" x2="896.26" y2="409.3"/>
		</g>
	</g>
	<g class="st4">
		<g>
			<line class="st5" x1="2.62" y1="291.84" x2="3.62" y2="291.84"/>
			<line class="st8" x1="5.63" y1="291.84" x2="1014.59" y2="291.84"/>
			<line class="st5" x1="1015.59" y1="291.84" x2="1016.59" y2="291.84"/>
		</g>
	</g>
	<g class="st4">
		<g>
			<line class="st5" x1="118.42" y1="172.87" x2="119.42" y2="172.87"/>
			<line class="st9" x1="121.42" y1="172.87" x2="1012.82" y2="172.87"/>
			<line class="st5" x1="1013.82" y1="172.87" x2="1014.82" y2="172.87"/>
		</g>
	</g>
	<polygon class="st10" points="993.09,199.64 991.67,198.23 956.05,233.86 920.42,198.23 919.01,199.64 954.63,235.27 
		919.01,270.89 920.42,272.31 956.05,236.68 991.67,272.31 993.09,270.89 957.46,235.27 	"/>
	<polygon class="st10" points="993.09,25.53 991.67,24.12 956.05,59.74 920.42,24.12 919.01,25.53 954.63,61.16 919.01,96.78 
		920.42,98.19 956.05,62.57 991.67,98.19 993.09,96.78 957.46,61.16 	"/>
	<polygon class="st10" points="993.09,317.18 991.67,315.77 956.05,351.39 920.42,315.77 919.01,317.18 954.63,352.8 919.01,388.43 
		920.42,389.84 956.05,354.22 991.67,389.84 993.09,388.43 957.46,352.8 	"/>
	<polygon class="st10" points="100.71,317.18 99.3,315.77 63.67,351.39 28.05,315.77 26.63,317.18 62.26,352.8 26.63,388.43 
		28.05,389.84 63.67,354.22 99.3,389.84 100.71,388.43 65.09,352.8 	"/>
	<polygon class="st10" points="100.71,23.96 99.3,22.54 63.67,58.17 28.05,22.54 26.63,23.96 62.26,59.58 26.63,95.21 28.05,96.62 
		63.67,61 99.3,96.62 100.71,95.21 65.09,59.58 	"/>
</g>
</svg>
