<?xml version="1.0" encoding="UTF-8"?>
<svg width="184px" height="136px" viewBox="0 0 184 136" version="1.1" xmlns="http://www.w3.org/2000/svg" xmlns:xlink="http://www.w3.org/1999/xlink">
    <title>Graphic/Options/Human</title>
    <g id="Graphic/Options/Human" stroke="none" stroke-width="1" fill="none" fill-rule="evenodd">
        <g id="Group-36" transform="translate(43.000000, 8.000000)">
            <path d="M39.6139767,37.5655166 C39.6139767,37.5655166 40.8074802,37.3110102 41.095392,39.0475809 C41.3901802,40.825105 41.0728195,43.6605657 41.0728195,43.6605657 L49.22464,39.4944936 L49.8369384,28.5391015 L39.6139767,37.5655166 Z" id="Fill-1" fill="#FBD3AE"></path>
            <path d="M31.5184048,90.7945387 C23.0961302,96.8465696 3.83361065,65.9698055 3.83361065,65.9698055 L11.0746542,51.7537438 L31.5207987,76.2673354 L31.5184048,90.7945387 Z" id="Fill-3" fill="#E89CAE"></path>
            <path d="M87.9600666,128 C83.3643646,68.5625701 76.4716157,37.7731798 67.2818197,35.631829 C52.6887336,32.2312813 35.6634666,44.4534166 32.4205089,51.8640752 C30.3949582,56.4929963 25.4805235,81.8716379 17.6772047,128 L87.9600666,128 Z" id="Fill-5" fill="#E89CAE"></path>
            <path d="M25.8858186,39.5441068 C21.8727116,34.8801898 23.5082234,29.6028981 26.2672437,19.9974925 C29.0262641,10.3919376 30.8946947,2.15736773 43.2340161,0.245275213 C52.584984,-1.20365074 56.1353907,6.73946168 60.0515352,17.3654164 C63.9676797,27.9915204 66.2680337,30.8221818 55.8204497,36.1850294 C42.0803282,43.237793 40.4261411,38.6253886 40.4261411,38.6253886 C40.4261411,38.6253886 30.7529115,45.2002037 25.8858186,39.5441068 Z" id="Fill-8" fill="#101820"></path>
            <path d="M39.4842345,12.1920068 C38.3621515,10.3488633 35.9365048,9.8802448 34.195244,11.1515274 C32.6305508,12.2942047 30.9756383,14.314889 30.468118,17.8519818 C29.2157679,26.5784915 33.4992458,33.3956157 35.6237151,36.5330176 C37.7481843,39.6705686 40.006047,37.1967819 40.006047,37.1967819 C40.006047,37.1967819 39.0706553,33.301325 41.111307,25.5059354 C42.5220618,20.1163 41.3941725,15.3294086 39.4842345,12.1920068" id="Fill-11" fill="#FFAE94"></path>
            <path d="M22.0144255,62.7136902 L33.0875042,46.7566553 C33.3502951,46.3777765 33.2223222,45.8529105 32.8150409,45.6391648 L23.9334239,40.9789406 C23.5560526,40.7810501 23.0904396,40.9319734 22.8995218,41.3142924 L14.5638729,57.9952805 C14.3881333,58.3464875 14.505541,58.7741285 14.8351457,58.9853313 L20.9797795,62.9214528 C21.3242647,63.1422286 21.7808006,63.0505378 22.0144255,62.7136902" id="Fill-13" fill="#64CCC9"></path>
            <path d="M31.2776902,69.4309484 C31.2776902,69.4309484 28.9211361,66.6397263 24.866378,64.3888128 C20.8114709,62.1377503 17.1170463,54.3045414 17.7478163,49.8027144 C18.3785862,45.3008873 23.6655149,46.9457971 28.3570062,53.7886636 L30.5838582,50.6131028 C30.5838582,50.6131028 30.100084,57.8909572 31.2776902,59.7068828 C32.4552964,61.5228084 33.437604,63.8759143 33.437604,63.8759143 L31.2776902,69.4309484 Z" id="Fill-15" fill="#FFAE94"></path>
            <path d="M2.91773703,39.1874303 C2.91773703,39.1874303 -2.65958706,48.5877363 1.60794392,52.9106701 C5.87517446,57.233753 5.30763249,59.5343209 6.5950424,60.6988353 L9.58402662,56.0272177 C9.58402662,56.0272177 7.45747183,50.870572 7.8207107,47.3095272 C8.18379935,43.7484823 6.36955788,33.9977044 2.91773703,39.1874303" id="Fill-17" fill="#FFAE94"></path>
            <path d="M10.7315622,50.4143107 L6.5819265,55.7727311 C6.27886488,56.1639163 5.66386289,56.0601446 5.50508109,55.5911677 L0.458986783,40.6830784 C0.391804178,40.4850362 0.428503046,40.266507 0.556357166,40.1014224 L4.70599284,34.743002 C5.00905446,34.3519653 5.62405645,34.4555885 5.78298623,34.9247138 L10.8289326,49.8326547 C10.8959672,50.0308453 10.8594163,50.2492261 10.7315622,50.4143107" id="Fill-19" fill="#101820"></path>
            <path d="M32.4880194,76.3008238 C31.6244118,76.5595303 31.1538956,77.4796078 31.4510637,78.3299417 C33.7423315,84.8871698 42.0886986,109.370558 41.9268375,112.606775 C41.753191,116.073085 73.7961815,102.197561 95.817952,100.659627 C97.0057295,100.57677 97.7531253,99.3538746 97.2708238,98.2662936 C95.055489,93.2695013 90.3718088,80.3338745 91.650139,62.532597 C91.7381557,61.305231 90.5333716,60.3908165 89.3734909,60.8048066 C79.2706691,64.4098589 40.7970913,73.8118162 32.4880194,76.3008238" id="Fill-21" fill="#101820"></path>
            <path d="M80.6100205,65.3843594 C80.6100205,65.3843594 69.4912673,41.3634816 68.6985685,40.4092218 C66.1277258,37.315292 55.8003328,41.401485 55.8003328,41.401485 C55.8003328,41.401485 57.2387911,38.1121726 60.676992,35.6365817 C60.676992,35.6365817 66.6214894,32.5737998 69.8568308,37.6181275 L83.9134775,63.5151846 L80.6100205,65.3843594 Z" id="Fill-24" fill="#101820"></path>
            <path d="M27.9555383,73.3371732 L33.5697374,58.940659 L44.4040781,69.554695 C44.4040781,69.554695 50.6906248,34.7943224 64.5376083,36.2508503 C78.1968244,37.687436 60.4246518,93.299508 57.7661827,95.6401916 C50.5104757,102.028407 30.6405965,77.3689293 28.0675713,74.1094142 C27.8933973,73.8890078 27.8535136,73.5986547 27.9555383,73.3371732" id="Fill-26" fill="#E89CAE"></path>
            <path d="M33.779691,24.1769886 C34.1992568,26.8663787 33.0036656,29.2831915 31.1091456,29.5749956 C29.2146256,29.8667998 27.3387099,27.9232629 26.9191442,25.2340207 C26.4995785,22.5446306 27.6951696,20.1278179 29.5896897,19.8360137 C31.4842097,19.5440617 33.3601253,21.4875986 33.779691,24.1769886" id="Fill-28" fill="#000000"></path>
            <path d="M42.5117526,22.6861124 C42.9314641,25.3755025 41.7358818,27.7923153 39.8412269,28.0841194 C37.9467208,28.3760715 36.070819,26.4325345 35.6512564,23.7431445 C35.2316938,21.0537544 36.4272761,18.6369416 38.321931,18.3451375 C40.2162882,18.0533333 42.09219,19.9968702 42.5117526,22.6861124" id="Fill-30" fill="#000000"></path>
            <path d="M27.8192444,44.0865225 C27.693899,44.0865225 27.5674978,44.0460733 27.4640237,43.9617795 C27.2264558,43.7688338 27.1926684,43.4254585 27.388907,43.1929494 L35.6439023,33.4234339 C35.8421018,33.1898914 36.1941548,33.1578568 36.4294602,33.3499167 C36.6670281,33.5428623 36.7008156,33.8862377 36.5047278,34.1187468 L28.2495817,43.8882623 C28.138415,44.0193532 27.979433,44.0865225 27.8192444,44.0865225" id="Fill-32" fill="#F4F4F4"></path>
            <path d="M22.5100107,40.9433017 L20.6296039,43.119291 C20.3116492,43.4870869 20.4197358,44.0517942 20.8514817,44.2788966 L31.6523365,49.9612167 C32.0753754,50.1838574 32.5985447,49.969694 32.7396577,49.5162328 L33.6166605,46.6971583 C33.7251974,46.3478043 33.5663702,45.9716798 33.2389578,45.8033236 L23.4415071,40.7637911 C23.1265547,40.6021275 22.7405955,40.6763411 22.5100107,40.9433017" id="Fill-34" fill="#64CCC9"></path>
        </g>
    </g>
</svg>