<?xml version="1.0" encoding="UTF-8"?>
<svg width="184px" height="136px" viewBox="0 0 184 136" version="1.1" xmlns="http://www.w3.org/2000/svg" xmlns:xlink="http://www.w3.org/1999/xlink">
    <title>Graphic/Options/Couple</title>
    <defs>
        <rect id="path-1" x="0" y="0" width="184" height="136"></rect>
    </defs>
    <g id="Graphic/Options/Couple" stroke="none" stroke-width="1" fill="none" fill-rule="evenodd">
        <mask id="mask-2" fill="white">
            <use xlink:href="#path-1"></use>
        </mask>
        <g id="Rectangle"></g>
        <g id="Group" mask="url(#mask-2)">
            <g transform="translate(-6.000000, 10.000000)">
                <path d="M49.4603512,55.8208955 C49.4603512,55.8208955 38.6419719,63.258227 37.0961691,73.8977274 C35.5503662,84.5383494 34.6094428,99.4937676 27.484188,105.950821 C15.8929072,116.45685 5.02524133,128.450122 1.93363571,136.380958 C-1.15684976,144.311794 -0.416432621,153.11187 3.25428898,151.034666 C11.760685,146.220757 10.8724085,140.369369 11.0146671,137.347777 C11.4302417,128.516297 31.5940072,122.726596 37.5744718,114.076815 C48.0064005,98.9879259 50.2332526,86.8589404 50.4259179,78.7340679 C50.6197034,70.610317 49.4603512,55.8208955 49.4603512,55.8208955" id="Fill-1" fill="#FFAE94"></path>
                <path d="M46.2802476,137.752327 C46.2802476,137.752327 41.2970291,138.164459 42.5691496,132.354195 C43.8401503,126.54393 45.8233593,117.438863 45.1816999,110.67744 C44.441496,102.890743 46.462779,92.9063868 43.8726252,84.7805517 C42.9846044,81.9989467 42.5960254,82.4144468 34.2174992,82.153917 C32.2051748,82.0910305 33.5332865,74.3436374 33.9577,70.2335549 C34.3821134,66.1245955 37.1503193,52.3457125 51.8480145,48.9453492 C66.5457097,45.5438629 73.182909,47.3754325 77.3665729,47.224954 C83.2434113,47.013835 96.9478223,45.2226926 103.572703,53.0037749 C109.485376,59.949365 111.059849,75.2498769 109.684705,79.3352539 C108.231173,83.6564553 95.859353,80.4863016 95.2031359,84.5200219 C92.7966333,99.303966 93.5704319,101.768892 93.5704319,115.941939 C93.5704319,138.286863 89.0799361,137.495167 80.962329,138.061145 C72.8436022,138.628247 64.8346181,140.329551 56.3553077,137.588373 C50.5938112,135.726483 51.9073652,138.977491 46.2802476,137.752327" id="Fill-3" fill="#000000"></path>
                <path d="M104.83304,111.4451 C101.88532,121.570695 96.8831959,138.277591 98.5471952,146.976919 C101.233896,160.976382 95.9077481,164.850249 94.5058934,163.686064 C93.0792868,162.52188 89.1561187,157.482703 89.5847757,148.949847 C89.6792828,146.834068 89.8075424,140.084046 90.0145578,137.12128 C90.5973514,128.803264 90.0145578,125.337705 92.8520198,106.500408 C93.9321005,99.3240802 92.3221052,94.5424864 93.4100615,83.5654049 C97.4187359,79.9299989 103.29955,82.3506034 107.904519,80.5970149 C109.308624,88.131034 108.992476,97.1610586 104.83304,111.4451" id="Fill-5" fill="#FFAE94"></path>
                <path d="M136.245848,45.4978412 C136.245848,45.4978412 126.920523,50.8925831 120.612972,66.5136647 C114.305421,82.1358681 106.508012,122.630647 115.235603,135.470784 C123.963194,148.309799 143.773493,162.829271 155.302823,158.236617 C166.834392,153.643963 170.114094,133.939525 163.448351,117.198886 C156.782607,100.457125 148.824011,37.3546864 136.245848,45.4978412" id="Fill-7" fill="#E89CAE"></path>
                <path d="M130.74843,165.074627 L162.002093,149.189042 C162.002093,149.189042 165.14497,123.805182 153.493877,115.148342 C141.841662,106.490386 119.507034,118.099512 119.507034,118.099512 C119.507034,118.099512 111.007797,123.116836 105.671642,153.91136 L130.74843,165.074627 Z" id="Fill-9" fill="#64CCC9"></path>
                <path d="M136.357875,45.5679914 C136.357875,45.5679914 118.946669,73.0365973 116.567449,93.5675908 C114.189355,114.098584 114.783878,121.335936 119.83958,120.154875 C124.895282,118.973814 141.888745,122.518115 147.370072,118.973814 C152.851398,115.428396 155.897205,44.7280515 151.920203,44.7761194 C147.944327,44.8253548 136.357875,45.5679914 136.357875,45.5679914" id="Fill-11" fill="#FFFFFF"></path>
                <path d="M133.93556,37.2179101 C133.93556,37.2179101 140.461745,37.5908934 135.670795,47.115969 C135.670795,47.115969 123.912003,71.3845264 137.88916,67.6737344 C145.977952,65.5265601 150.672501,47.3691048 151.940299,44.6226931 C146.270521,41.8617205 144.78638,26.5671642 144.78638,26.5671642 L133.93556,37.2179101 Z" id="Fill-13" fill="#FFAE94"></path>
                <path d="M131.547264,3.58208955 C131.547264,3.58208955 124.126735,4.10428841 124.698402,17.9041448 C124.698402,17.9041448 124.701745,21.2744986 122.710382,24.4221664 C122.710382,24.4221664 121.252798,26.9040027 124.53682,27.6978786 C128.524003,28.6621093 125.930885,36.7467275 130.491964,36.9905687 C137.27285,37.353547 143.889924,33.5678837 145.711904,31.7440847 C147.53277,29.9202857 155.22966,7.2864725 131.547264,3.58208955" id="Fill-15" fill="#FFAE94"></path>
                <path d="M152.841786,66.8656716 C152.80755,66.8656716 152.76989,66.8624312 152.733372,66.85487 C152.403564,66.7987015 152.190159,66.5005764 152.24836,66.1916496 L153.131652,61.6636041 C153.190994,61.352517 153.503684,61.1386446 153.833492,61.2066949 C154.1633,61.2628635 154.377846,61.5609886 154.318503,61.8709955 L153.436353,66.3979608 C153.381575,66.6734025 153.127087,66.8656716 152.841786,66.8656716" id="Fill-17" fill="#E34929"></path>
                <path d="M148.637364,93.1343284 C148.493068,93.1343284 148.348773,93.0792148 148.236179,92.9711921 C148.005526,92.7463286 148.001153,92.3770675 148.221969,92.1466926 C149.445198,90.8757729 150.338297,89.2995239 150.80507,87.5921045 C150.891428,87.2812638 151.200788,87.1015934 151.515614,87.1842638 C151.822788,87.2713433 152.003157,87.5921045 151.920078,87.9007407 C151.400834,89.7977509 150.408258,91.5459543 149.052759,92.9568626 C148.939072,93.0748057 148.789311,93.1343284 148.637364,93.1343284" id="Fill-19" fill="#E34929"></path>
                <path d="M132.111156,1.10344776 C132.111156,1.10344776 124.903028,2.29080833 123.026694,6.83917439 C121.151482,11.3886638 124.113465,13.6645318 128.458305,11.8840526 C132.803146,10.1035734 132.712301,14.6283496 136.708343,12.316535 C140.702142,10.0047203 137.962223,15.9842097 143.264858,23.2577761 C147.893447,29.605718 135.226791,33.8564014 139.919308,40.1133535 C143.264858,44.5752231 146.534143,40.19985 155.298966,42.2757651 C162.186335,43.9079647 165.370383,38.7440134 161.890249,32.7813739 C158.91705,27.6893158 155.083631,22.601751 155.448131,18.2555844 C156.054883,10.9966214 157.29867,-4.08409348 132.111156,1.10344776" id="Fill-21" fill="#101820"></path>
                <path d="M139.712278,18.8388252 C139.712278,18.8388252 141.033606,13.4025069 145.244712,14.882096 C149.455818,16.3628009 145.892574,24.2584061 142.627659,24.7493708 C139.363857,25.2392197 139.712278,18.8388252 139.712278,18.8388252" id="Fill-24" fill="#FFAE94"></path>
                <path d="M143.233238,130.937273 L145.121498,125.09927 C145.121498,125.09927 138.151531,116.972689 140.473732,110.355763 C142.797055,103.737716 140.358239,97.5847811 141.5199,87.71655 C142.681561,77.8483188 143.493379,44.9911999 154.645774,43.3661079 C165.795927,41.7410159 171.372125,64.3802287 169.164296,88.0057043 C166.957588,111.632301 170.558065,124.286724 178.224356,140.889561 C184.188521,153.80624 173.905129,161.452018 165.465145,163.718181 C162.441014,164.530727 159.539103,162.188353 159.608624,159.05921 C159.682629,155.749626 159.407912,151.105225 158.014143,145.764837 C156.527306,140.07029 150.927561,137.638256 150.927561,137.638256 L144.218856,133.575526 C143.317335,133.03084 142.910305,131.939226 143.233238,130.937273" id="Fill-29" fill="#E89CAE"></path>
                <path d="M84.1791045,49.0814915 C84.1791045,45.7290551 58.5074627,45.7290551 58.5074627,49.0814915 C58.5074627,52.4339279 61.4484013,60.5867801 68.5137863,61.1661995 C75.8633469,61.7683858 84.1791045,52.4339279 84.1791045,49.0814915" id="Fill-31" fill="#FFAE94"></path>
                <path d="M79.8586465,29.5522388 C79.8586465,29.5522388 75.5114743,40.8559347 80.5970149,47.4626866 L62.0895522,47.4414789 C62.7134623,47.378972 64.1441914,45.2135558 63.49335,37.16803 C63.49335,37.16803 73.9797526,37.4705185 79.8586465,29.5522388" id="Fill-33" fill="#FFAE94"></path>
                <path d="M75.2939375,10.7671426 C75.2939375,10.7671426 87.5941373,8.59131929 87.4616235,17.470639 C87.3324787,26.185073 85.3986757,29.3524389 83.4637497,32.5532275 C81.5310698,35.7529021 81.8982902,41.0726952 75.617361,42.1912444 C70.8311425,43.0446395 63.3205302,41.3467621 62.4288696,32.6423549 C61.5798829,24.3590749 61.2373684,7.95962867 75.2939375,10.7671426" id="Fill-35" fill="#FFAE94"></path>
                <path d="M63.2835821,20.5991783 C63.2835821,20.5991783 61.3019262,15.9333685 57.9110183,17.7217181 C54.5201105,19.5100677 59.0056154,30.3287201 63.1697708,28.8094855 C63.1697708,28.8094855 63.2389502,25.4443981 63.2835821,20.5991783" id="Fill-37" fill="#FFAE94"></path>
                <path d="M86.3096891,23.5820896 C86.3096891,23.5820896 90.0547699,22.8253096 88.9572083,17.0349328 C87.860761,11.2445559 93.5424531,11.6510163 91.4888428,5.85951661 C89.1009499,-0.881887852 82.7785493,4.75129439 80.3962277,4.10567354 C78.0161347,3.46117551 74.6131365,-1.12778518 70.6318292,0.260018933 C66.6494077,1.64670023 69.7894368,3.0434869 64.5679406,2.94467884 C59.3464444,2.84474796 60.1219803,7.6627637 60.7459747,10.2328961 C61.3699692,12.8030285 60.7192321,19.0683577 62.7238142,20.821078 C64.7283963,22.574921 66.4410381,13.5519486 68.4099634,11.6555076 C70.3777744,9.75906652 80.1143159,20.1013511 86.7943991,15.4360387 C86.7943991,15.4360387 86.8701698,19.2457631 86.3096891,23.5820896" id="Fill-39" fill="#101820"></path>
            </g>
        </g>
    </g>
</svg>