<?xml version="1.0" encoding="UTF-8"?>
<svg width="184px" height="136px" viewBox="0 0 184 136" version="1.1" xmlns="http://www.w3.org/2000/svg" xmlns:xlink="http://www.w3.org/1999/xlink">
    <title>Graphic/Options/Family</title>
    <defs>
        <rect id="path-1" x="0" y="0" width="184" height="136"></rect>
    </defs>
    <g id="Graphic/Options/Family" stroke="none" stroke-width="1" fill="none" fill-rule="evenodd">
        <mask id="mask-2" fill="white">
            <use xlink:href="#path-1"></use>
        </mask>
        <g id="Rectangle"></g>
        <g id="Group-3" mask="url(#mask-2)">
            <g transform="translate(22.000000, 10.000000)">
                <g id="Group-2" stroke-width="1" fill="none" transform="translate(78.675246, 3.606391)">
                    <path d="M0.857941964,195.902178 C1.7088888,208.358354 19.391262,213.918877 22.2202034,197.00777 C29.2943445,154.724442 40.5763422,148.998318 41.5587846,131.413689 C42.5515559,113.64281 10.2453713,101.918533 7.63850244,111.318049 C-1.56380028,144.498512 -0.425231831,177.128959 0.857941964,195.902178 Z" id="Fill-7" fill="#E89CAE"></path>
                    <path d="M32.9059829,126.230648 C32.9059829,133.825862 26.4771548,147.179487 18.5468099,147.179487 C10.616465,147.179487 4.18803419,133.825862 4.18803419,126.230648 C4.18803419,118.635434 10.616465,112.478632 18.5468099,112.478632 C26.4771548,112.478632 32.9059829,118.635434 32.9059829,126.230648" id="Fill-11" fill="#E89CAE"></path>
                    <path d="M11.7811958,129.586683 C6.85854486,153.193538 6.39220945,179.988231 8.02657744,198.714005 C9.18304139,211.963561 26.7226782,215.520083 29.323625,198.551117 C35.8259922,156.122742 45.6074672,152.218593 46.9079406,134.644954 C47.6156216,125.082231 41.6717399,117.858343 37.8880005,112.245855 C31.7841527,103.192059 15.1105674,113.620075 11.7811958,129.586683" id="Fill-19" fill="#E89CAE"></path>
                    <path d="M15.6432325,5.58895141 C14.8756232,6.17231553 12.0902639,5.96541784 10.097493,7.96251663 C8.10472215,9.95921831 8.51191987,14.4529884 9.4670701,16.7022562 C10.4226168,18.951524 8.55751649,20.458581 8.90286139,24.7120957 C9.24820629,28.9652132 13.9418835,30.9952727 14.8645214,34.1205794 C15.7875557,37.2458861 14.517194,43.2137526 21.6171838,48.11417 C28.71757,53.0141903 34.1713232,53.1639033 35.8334194,52.8485928 C39.1944857,52.2104266 40.6456479,50.3280944 45.1303736,51.4725841 C49.6158924,52.6170739 52.9610989,47.9048897 53.7049187,45.1905985 C54.4019524,42.6486559 55.755974,41.0764717 58.2998693,40.6412321 C60.8441612,40.2055953 62.1819266,33.0030936 60.7204555,28.6213103 C58.9493239,23.3090831 53.006299,18.9368307 51.4786138,17.6386569 C49.950532,16.340086 47.2738117,10.5398026 41.8914271,8.72100912 C36.5090425,6.90221562 37.0764232,6.96297444 34.1388108,4.55287451 C31.2011985,2.14237745 25.7240522,-1.0317746 21.6203557,0.325569539 C18.2553246,1.43868704 16.4564385,4.97103816 15.6432325,5.58895141" id="Fill-23" fill="#482601"></path>
                    <path d="M39.9669037,28.5727614 C49.3218438,31.5511564 55.9217473,42.5173732 36.5246011,46.6774812 C20.5801103,50.0966771 26.231539,43.3910039 17.235761,30.6217281 C10.619532,21.2294015 16.857486,18.1569478 21.5337615,16.5180932 C24.3178656,15.5424327 31.2996277,25.8131726 39.9669037,28.5727614" id="Fill-25" fill="#482601"></path>
                    <path d="M27.7393402,43.8229881 C25.4494829,44.3737196 20.7432808,47.2929539 15.9688786,53.0178615 C12.7646644,56.8602758 4.01165981,69.1149451 3.53465576,75.3556423 C3.18057045,79.9866312 6.64568968,83.2143863 6.58224774,87.2787609 C6.51642673,91.4666233 0.74717571,123.210914 4.63695939,124.38782 C17.0759404,128.151218 45.8825443,122.734831 42.8555709,117.440741 C39.0327978,110.754138 34.6604589,105.499357 33.7952695,100.00991 C32.7607695,93.4444125 33.7397578,83.1286199 36.827001,73.3278227 C40.0526269,63.0878698 44.7727069,50.4444722 41.4757088,46.7640611 C39.1806968,44.203378 33.1116827,42.530536 27.7393402,43.8229881" id="Fill-27" fill="#E89CAE"></path>
                    <path d="M27.511439,43.5239017 C25.5739673,43.986375 21.9187373,46.1268527 17.9487179,50.187885 C20.0791378,54.2917904 26.7352519,58.335356 35.1694457,60.1975556 C36.9798832,60.5973073 38.7571639,60.8688367 40.471327,61.025641 C42.3540701,54.5260044 43.4194798,48.7564009 41.3505796,46.4642796 C39.0383969,43.9042017 32.9239759,42.231358 27.511439,43.5239017" id="Fill-29" fill="#FFAE94"></path>
                    <path d="M29.3586156,26.3084735 C27.6946788,39.2478281 25.1203012,46.3506285 25.4574125,47.268181 C26.0307421,48.8279805 36.1268665,47.234462 35.8934509,43.5051447 C35.6340113,39.3557288 35.638015,19.7435897 35.638015,19.7435897 C35.638015,19.7435897 29.6504851,24.0413691 29.3586156,26.3084735" id="Fill-31" fill="#FFAE94"></path>
                    <path d="M13.470155,20.787359 C13.6790593,26.4831909 17.2066471,40.6904326 25.6333762,40.0654981 C37.4418169,39.1893994 33.9055082,20.0350569 33.9055082,20.0350569 C33.9055082,20.0350569 26.6473743,14.0190205 19.6088476,13.4865366 C13.8637829,13.0516615 13.38255,18.403085 13.470155,20.787359" id="Fill-33" fill="#FFAE94"></path>
                    <path d="M38.3525741,22.0432448 C37.7363238,23.7262772 36.7952003,25.3500561 35.1817304,25.1032323 C33.7837665,24.889763 34.4871878,20.4445799 35.5558391,19.5428294 C37.6955633,17.7377586 39.1919981,19.7511973 38.3525741,22.0432448" id="Fill-35" fill="#FFC88E"></path>
                    <path d="M12.5641026,14.6028168 C12.5641026,14.6028168 16.5141557,17.4699324 19.959524,16.5573417 C23.4048922,15.6439526 26.0499178,15.9593273 28.0213678,18.2332191 C29.9928179,20.5071108 29.8004813,25.6744659 35.2661786,28.888893 C40.66273,32.0629999 47.9393319,29.264149 44.6449717,23.3598549 C42.4370748,19.4017024 39.5496416,20.0504163 38.2402427,17.3433833 C36.9312412,14.6371487 36.3613844,9.81151609 32.0532832,9.28096796 C27.745182,8.75041983 21.9432931,6.09528395 18.1096751,6.29249296 C14.276852,6.48930276 12.5641026,14.6028168 12.5641026,14.6028168" id="Fill-37" fill="#482601"></path>
                    <path d="M50.6690974,100.912177 C43.4552264,117.96452 28.5521105,142.522027 24.4152856,146.862848 C23.5874448,147.731967 21.832248,146.660199 22.1823358,145.479741 C22.7913221,143.430562 33.3653225,117.002237 41.248444,97.5208984 C43.9880894,90.7506833 53.3758353,94.5138161 50.6690974,100.912177" id="Fill-39" fill="#FFAE94"></path>
                    <path d="M34.5012963,44.867451 C38.5710753,43.6202333 42.776249,46.4447446 44.1945173,51.1813917 C49.0528409,67.4099191 51.4927231,89.1099194 51.1159211,97.9262396 C50.9003221,102.963172 44.0539611,104.444343 42.2251413,99.8292397 C40.4459531,95.3380642 34.6954545,79.5953161 29.199069,57.7364346 C27.3559554,50.4072428 31.1712244,45.8874686 34.5012963,44.867451" id="Fill-41" fill="#FFAE94"></path>
                    <path d="M29.3162393,58.5993012 C29.3162393,58.5993012 33.1170784,59.6662797 37.2185941,58.2497123 C41.3197099,56.8335408 44.1729382,54.2130099 45.1309447,54.4608498 C46.0885515,54.7082938 50.3528003,68.780137 51.2012519,72.4636873 C52.0493036,76.1464458 56.1508192,81.5086562 54.2432026,83.7859328 C52.335586,86.0628135 50.8146106,87.195909 46.8062567,88.3294005 C42.7979028,89.4628919 37.0222747,92.5791027 35.808773,88.8959483 C34.5952714,85.2131898 32.8311958,74.5414251 31.6864659,71.8967436 C30.541736,69.2524581 29.3162393,58.5993012 29.3162393,58.5993012" id="Fill-43" fill="#E89CAE"></path>
                </g>
                <path d="M78.6752462,130.860665 C78.6752462,130.860665 71.0467331,134.142658 66.4758215,134.030953 C61.9045127,133.919248 52.0513146,43.6918608 52.0513146,43.6918608 C52.0513146,43.6918608 56.8557764,45.1476092 60.8253359,47.9283194 C64.7948954,50.7086321 69.1529109,54.477995 72.0663308,67.8488581 C74.9797508,81.2193236 72.3507219,87.4064534 73.4874919,101.061947 C74.6246591,114.717042 78.6752462,130.860665 78.6752462,130.860665" id="Fill-45" fill="#64CCC9"></path>
                <path d="M41.2155543,129.736307 C39.8303743,136.75078 37.1389974,143.63133 40.5348713,153.96646 C44.4205195,165.791834 57.8222353,205.293596 60.0678939,212.813956 C62.3139493,220.334714 75.6390634,277.375242 76.3522922,278.872637 C77.0452791,280.327114 91.4448007,278.602009 91.5368815,276.881276 C91.6349157,275.052053 87.2475863,240.291646 82.6320395,204.372825 C77.9585454,168.006136 73.0512773,130.451226 72.3301105,124.687365 C71.1136129,114.970983 42.9654852,120.873139 41.2155543,129.736307" id="Fill-59" fill="#101820"></path>
                <path d="M32.1106229,115.785878 C36.6800206,116.99234 41.745106,118.096284 47.1041829,119.016964 C56.7808353,120.679015 61.8419425,120.966381 68.8034513,120.907008 C66.7112989,134.803091 65.617285,147.919011 50.1710022,148.091194 C28.5238486,148.33304 28.059191,130.062741 31.520651,118.146158 C31.7386581,117.395285 31.9316024,116.60206 32.1106229,115.785878" id="Fill-61" fill="#101820"></path>
                <path d="M28.5312191,119.550069 C25.2054581,125.983276 20.6732821,131.898709 20.9525082,142.990294 C21.272529,155.681731 24.574526,201.512714 24.562644,209.517537 C24.5515542,217.521963 27.1544958,276.813488 27.4056013,278.486512 C27.6495776,280.111417 40.5684379,281.123502 41.1478816,279.472351 C41.7780216,277.678832 45.560842,244.03026 50.3861064,210.040084 C55.0675991,177.062789 59.2544062,143.59516 58.156513,138.089333 C55.9258728,126.908271 32.7338688,111.421171 28.5312191,119.550069" id="Fill-63" fill="#101820"></path>
                <path d="M47.0920481,42.5866225 C51.6022465,43.9355463 56.4222757,45.7101534 61.8730741,53.3081245 C67.3238725,60.9060955 67.6154545,69.5198295 68.8758028,88.7053616 C71.3361996,126.162715 74.6126293,127.962339 72.733413,128.577039 C59.2238432,132.993901 23.0085642,132.891451 23.8107122,126.582442 C25.7430877,111.390074 22.1703155,79.1104116 17.6121151,66.4923951 C13.0543114,53.8751728 22.9355695,44.5569963 29.9486127,42.5254703 C36.0694547,40.7520544 41.8368278,41.0149298 47.0920481,42.5866225" id="Fill-65" fill="#FFFFFF"></path>
                <path d="M39.4730752,41.0406063 C39.4730752,41.0406063 38.2641846,42.6483924 39.4730752,47.2039854 C40.681568,51.7591806 44.6683605,70.9069945 44.0989324,81.8690642 C43.5291064,92.831134 43.2127575,118.741119 44.1542438,123.581188 C45.09573,128.421655 44.1542438,137.628727 44.1542438,137.628727 C44.1542438,137.628727 34.1922365,138.776179 28.0097037,136.536578 C21.827171,134.296181 18.1853778,129.987665 18.1853778,129.987665 C18.1853778,129.987665 24.3078242,109.92157 22.5995399,99.9525802 C20.8908577,89.9839878 13.0597291,63.2197794 16.9036672,54.4881598 C20.7480032,45.7569381 25.3993275,43.5260901 28.816692,42.102517 C32.2336585,40.6789439 39.4730752,41.0406063 39.4730752,41.0406063" id="Fill-67" fill="#64CCC9"></path>
                <path d="M20.2995516,102.301794 C22.3129335,97.5977838 31.1030642,77.7683134 36.8298042,66.8433316 C40.7519664,59.3619384 30.4091801,38.8463754 23.673154,45.19144 C7.41478573,60.5054262 3.91342557,96.6706638 5.39341897,102.370602 C7.26986056,109.599036 17.9747602,107.732069 20.2995516,102.301794" id="Fill-69" fill="#64CCC9"></path>
                <path d="M18.1819642,108.538702 C22.836665,105.879636 21.605383,99.8653435 19.5484599,95.2500819 C16.3105112,87.9824666 4.79900119,93.4155076 1.70025476,97.7468563 C-1.61108428,102.374359 0.113588088,105.078441 5.1464086,109.387282 C8.97586729,112.665508 13.5894855,111.16302 18.1819642,108.538702" id="Fill-71" fill="#64CCC9"></path>
                <path d="M30.0184822,151.504194 C27.6954646,146.012677 21.6117675,117.242807 20.8140355,105.397743 C20.3664017,98.7478619 5.37958805,96.0130125 5.09491035,103.630842 C4.58819992,117.16426 24.714675,152.819651 25.7514887,153.867732 C27.6593843,155.795297 31.0640185,153.975238 30.0184822,151.504194" id="Fill-74" fill="#FFAE94"></path>
                <path d="M54.7436223,32.3603838 C54.7436223,32.3603838 53.4847586,39.4297606 53.3231719,42.026147 C52.9299512,48.3256351 53.55799,49.7437257 51.2193612,50.4245365 C46.5214077,51.7913278 40.1403261,43.2581282 40.39186,41.7855568 C41.493515,35.3381356 44.6707229,23.3499804 44.6707229,23.3499804 L54.7436223,32.3603838 Z" id="Fill-76" fill="#FFAE94"></path>
                <path d="M62.0326515,21.0721174 C63.1292273,18.9765316 64.8778641,15.1436376 64.8778641,9.35751449 C64.8778641,3.57099375 61.2855646,0.701989686 59.9758761,2.20508537 C58.5735474,3.81514739 55.4170154,-0.36528778 50.7225736,0.0259942718 C46.7477846,0.357232025 47.8769635,3.13676611 45.5295438,3.15625068 C41.1670965,3.19164103 36.8869521,5.00609225 38.2030021,8.20712936 C39.4228333,11.1747492 35.5235879,9.66608652 34.5276045,12.8671236 C33.531621,16.0681607 34.5276045,18.2265743 33.6505029,21.6884661 C32.9336334,24.5169105 37.8543085,32.2562627 42.6596801,31.9910339 C51.4318888,31.5059078 58.8554445,27.1429538 62.0326515,21.0721174" id="Fill-78" fill="#D97403"></path>
                <path d="M62.8432854,14.6747667 C62.8432854,14.6747667 69.9765556,36.2249159 60.9223443,41.088196 C56.8601049,43.2698209 50.5439931,40.5945204 47.556794,38.3016894 C43.1803856,34.9424716 41.5899806,29.3976571 41.5899806,29.3976571 C41.5899806,29.3976571 38.0179563,29.7364385 37.4526918,24.628505 C36.9006009,19.6365436 40.3488738,21.020265 41.2654325,22.3463974 C41.7648293,23.0692369 42.0294976,23.5164442 42.0294976,23.5164442 C44.8518279,23.7873105 45.3152969,17.7881397 48.3835332,17.4414151 C53.8114293,16.828193 56.8589073,17.964878 59.0213632,17.3091593 C61.1347177,16.66893 62.8432854,14.6747667 62.8432854,14.6747667" id="Fill-81" fill="#FFAE94"></path>
                <g id="Group" stroke-width="1" fill="none" transform="translate(39.786357, 63.666220)">
                    <path d="M66.9556817,70.3709856 C65.4726751,68.3149906 56.0544645,56.5155743 52.2234973,51.9198908 C47.9554586,46.8007693 51.0233486,39.2111151 57.6689121,44.0007528 C63.207814,47.9927138 71.5133701,62.1223638 73.4446346,66.4525524 C75.5385025,71.1460079 69.7011616,74.1765438 66.9556817,70.3709856" id="Fill-83" fill="#FFAE94"></path>
                    <path d="M19.9259113,40.0069903 C27.789011,34.6235158 50.3749677,35.866131 54.1574097,40.7841708 C57.4907365,45.1176374 50.1456323,60.8756978 52.7885639,86.0337906 C53.4861258,92.6721913 19.7901416,92.7452629 20.4928795,85.2049834 C23.2803402,55.2880993 16.276452,42.505723 19.9259113,40.0069903" id="Fill-101" fill="#FCF7F1"></path>
                    <path d="M34.0026562,20.3418803 L41.0879469,20.3418803 C41.0879469,20.3418803 41.2034724,27.7796402 42.4593585,38.0449318 C42.6521692,39.6193802 41.4256676,43.6752137 37.5453016,43.6752137 C33.9120875,43.6752137 32.3913382,39.6029922 32.6312447,37.8135011 C33.4451555,31.732349 34.0026562,20.3418803 34.0026562,20.3418803" id="Fill-109" fill="#FFAE94"></path>
                    <path d="M24.8769305,16.4066483 C24.4059149,24.5265442 27.3994365,32.0283069 34.3593841,33.5464451 C41.3197275,35.0645834 47.7223727,29.685991 50.0825961,21.9047384 C51.6234898,16.8235011 53.4671793,12.9058786 48.6434258,7.935008 C42.932659,2.05103123 37.8860637,4.37389393 36.7924368,4.1920667 C32.2445638,3.43498259 30.5995716,4.66013287 28.5496644,6.75392502 C25.9757029,9.38247979 25.1377702,11.9125779 24.8769305,16.4066483" id="Fill-111" fill="#482601"></path>
                    <path d="M45.2882714,24.7752926 C44.8747635,26.6552586 45.5890414,28.4051971 46.8836954,28.6837702 C48.1779424,28.9619407 49.0717055,27.5014446 49.9756434,25.7837112 C51.5030991,22.8808343 49.6748734,22.1534041 48.3806264,21.8752336 C47.0859724,21.5966604 45.7017793,22.8949239 45.2882714,24.7752926" id="Fill-113" fill="#FFAE94"></path>
                    <path d="M28.0030375,21.0317507 C27.5920343,22.8875245 26.216225,24.1694787 24.9294126,23.8944904 C23.6434092,23.6198994 23.4443801,21.9457292 23.3436519,20.0363089 C23.1741535,16.8107595 25.1308689,16.8989783 26.4172768,17.1735692 C27.7040893,17.4481601 28.4140408,19.1755795 28.0030375,21.0317507" id="Fill-115" fill="#FFAE94"></path>
                    <path d="M25.6083859,19.7478753 C23.7165541,28.4066562 27.6141113,34.6056466 33.8003296,35.9447112 C39.9865478,37.2833781 46.1188165,33.2550485 48.011048,24.5958699 C49.9032795,15.937089 45.6044972,11.5730985 39.418279,10.2344315 C33.2320607,8.89576459 27.5006174,11.0886967 25.6083859,19.7478753" id="Fill-117" fill="#FFAE94"></path>
                    <path d="M49.3540864,21.5796218 L48.260645,22.1367521 C48.260645,22.1367521 47.9750387,16.7552887 42.3668063,16.6553729 C35.2258599,16.5278804 33.3889731,12.8270003 32.9133577,12.9301133 C31.7997699,13.1719095 31.304008,16.4035852 26.3207121,17.3092217 C25.4042439,17.4758813 26.4731934,10.2335865 31.6516338,8.21688659 C36.8308643,6.200986 46.1136602,8.55580089 47.8201872,12.3502022 C49.5267142,16.1450032 49.3540864,21.5796218 49.3540864,21.5796218" id="Fill-119" fill="#482601"></path>
                    <path d="M36.6900853,5.38461538 C36.6900853,5.38461538 40.8113235,4.04071585 40.348335,2.84447084 C39.8853466,1.64903711 37.9000231,3.39898658 37.9000231,3.39898658 C37.9000231,3.39898658 39.9810682,1.00527962 38.753508,0.112862181 C37.5267487,-0.779149615 36.4153361,3.9092871 36.4153361,3.9092871 C36.4153361,3.9092871 33.7707747,2.01817341 32.499559,2.31713326 C31.2283432,2.61649874 36.6900853,5.38461538 36.6900853,5.38461538" id="Fill-121" fill="#482601"></path>
                    <path d="M52.4022177,39.2315169 C56.1566212,41.1146976 61.2763341,46.6500107 65.5128205,51.8677992 C63.7905881,54.5390001 61.187893,57.0324672 57.9124138,58.9316239 C54.0766761,55.4400512 49.9152067,51.6960563 47.5059765,49.5932045 C42.0573733,44.8391218 44.4891086,35.2622593 52.4022177,39.2315169" id="Fill-123" fill="#FCF7F1"></path>
                    <path d="M7.09113285,67.0775969 C8.93702687,65.1023162 20.4869467,53.8871775 25.1574061,49.541162 C30.3603426,44.6998345 27.5845111,35.471514 19.9137249,39.6448664 C13.5208039,43.1231905 3.39455133,57.7410635 0.766918597,62.0616171 C-2.08161424,66.7450018 3.67457117,70.7341538 7.09113285,67.0775969" id="Fill-125" fill="#FFAE94"></path>
                    <path d="M22.3261603,84.680719 C20.5706056,81.9536242 8.900166,64.5964305 7.92736541,62.8084835 C6.38086191,59.9660756 -1.16636022,62.7141724 0.551976996,66.0479487 C2.27387759,69.3872728 19.1698044,86.0898368 19.7308376,86.6846304 C21.2009265,88.2435364 23.7257736,86.8558168 22.3261603,84.680719" id="Fill-127" fill="#FFAE94"></path>
                    <path d="M19.9966221,39.3797323 C27.8767688,35.0720731 30.7289427,44.5967021 25.384106,49.5939218 C23.3753083,51.4715682 20.1281505,54.5923379 16.8925514,57.7350427 C13.1451871,56.2570143 10.1957619,53.7388623 8.67521368,50.6687428 C12.4433036,45.8745226 16.7020345,41.1808053 19.9966221,39.3797323" id="Fill-131" fill="#FCF7F1"></path>
                </g>
            </g>
        </g>
    </g>
</svg>