<?xml version="1.0" encoding="UTF-8"?>
<svg width="184px" height="136px" viewBox="0 0 184 136" version="1.1" xmlns="http://www.w3.org/2000/svg" xmlns:xlink="http://www.w3.org/1999/xlink">
    <title>Graphic/Options/Hometown</title>
    <defs>
        <rect id="path-1" x="0" y="0" width="184" height="136"></rect>
    </defs>
    <g id="Graphic/Options/Hometown" stroke="none" stroke-width="1" fill="none" fill-rule="evenodd">
        <mask id="mask-2" fill="white">
            <use xlink:href="#path-1"></use>
        </mask>
        <g id="Rectangle"></g>
        <g id="Group-97" mask="url(#mask-2)">
            <g transform="translate(-5.000000, 2.000000)">
                <path d="M104.070911,138.875305 C103.165516,141.685534 103.746515,144.723237 106.370272,146.077103 C106.370272,146.077103 134.71155,162.631708 149.864997,168.51992 C152.616605,169.588951 155.712929,168.843417 157.066615,166.22038 C157.066615,166.22038 174.688993,135.687093 179.509253,122.725295 C180.538543,119.958222 179.589093,117.272607 177.210072,115.524216 C163.9816,105.800799 133.715347,93.0815784 133.715347,93.0815784 C131.09195,91.726993 127.867594,92.7575425 126.513908,95.3805794 C126.513908,95.3805794 108.741381,124.374785 104.070911,138.875305" id="Fill-1" fill="#64CCC9"></path>
                <path d="M167.249958,120.223007 C167.249958,120.223007 155.142126,115.154775 151.254593,113.153556 C147.225902,111.08041 135.657171,103.921409 135.657171,103.921409 C134.873694,103.516813 133.980168,103.442368 133.140767,103.71048 C132.301546,103.978232 131.617151,104.557253 131.212735,105.34001 C131.212735,105.34001 126.152236,117.229181 124.285343,120.847163 C122.076611,125.127602 114.911137,136.933516 114.911137,136.933516 C114.419149,137.885844 114.421666,139.022488 114.917431,139.973916 C115.232835,140.578472 115.720867,141.063986 116.329918,141.377772 L147.923065,157.67991 C148.706362,158.083606 149.600068,158.158951 150.439109,157.890839 C151.279049,157.622547 151.963445,157.043526 152.3675,156.26041 L168.669638,124.667083 C169.160907,123.715295 169.15785,122.579371 168.662266,121.627582 C168.347221,121.023027 167.859189,120.536973 167.249958,120.223007 M113.873395,136.398012 C113.873395,136.398012 120.954533,124.756274 123.134494,120.530679 C125.029798,116.857852 130.174813,104.804685 130.174813,104.804685 C130.722006,103.744645 131.649339,102.960629 132.785622,102.597393 C133.922266,102.234875 135.132635,102.336114 136.192316,102.883307 C136.192316,102.883307 147.779029,110.052198 151.814733,112.128402 C155.696511,114.125664 167.785642,119.185265 167.785642,119.185265 C168.609758,119.610539 169.270418,120.267962 169.697491,121.087942 C170.368579,122.375994 170.372356,123.913996 169.707021,125.202587 L153.405243,156.795734 C152.85805,157.856314 151.931077,158.64015 150.794254,159.003027 C149.65779,159.366264 148.44796,159.264665 147.38792,158.717473 L115.794593,142.415874 C114.970478,141.990959 114.309459,141.332997 113.882386,140.513377 C113.211297,139.225504 113.20788,137.686783 113.873395,136.398012" id="Fill-3" fill="#FFFFFF"></path>
                <path d="M13.0413327,157.677231 C14.2126813,160.005183 16.4597143,161.555413 18.9478861,160.781826 C18.9478861,160.781826 47.0228511,153.637391 60.1986354,147.954354 C62.5907832,146.922006 64.0762777,144.535433 63.3028711,142.0478 C63.3028711,142.0478 55.4720619,111.932955 50.4748591,100.797051 C49.4081658,98.4192887 47.1478262,97.318969 44.569025,97.6928152 C30.2283656,99.7722557 3.31845554,110.520468 3.31845554,110.520468 C0.829744256,111.293694 -0.559366633,113.938669 0.21403996,116.426661 C0.21403996,116.426661 6.99703696,145.666501 13.0413327,157.677231" id="Fill-5" fill="#64CCC9"></path>
                <path d="M20.4875425,148.174849 C17.5167333,145.735229 9.80856144,135.775528 9.80856144,135.775528 L12.2591508,119.596028 L22.447043,132.136687 C22.447043,132.136687 21.6662637,144.282641 20.4875425,148.174849" id="Fill-7" fill="#F9F9F9"></path>
                <path d="M35.9362717,143.726763 L25.7481998,131.186284 C25.7481998,131.186284 26.4802478,121.653117 27.7078801,115.147942 C32.010977,119.324805 37.8957722,127.688781 37.8957722,127.688781 L35.9362717,143.726763 Z" id="Fill-9" fill="#F9F9F9"></path>
                <path d="M33.7615624,136.173614 L28.9587453,130.261846 C28.9587453,130.261846 28.8697343,124.609019 29.8824815,122.701127 C31.4490749,123.447381 34.6852987,128.613075 34.6852987,128.613075 L33.7615624,136.173614 Z" id="Fill-11" fill="#64CCC9"></path>
                <path d="M51.3850909,139.278839 L41.197019,126.73818 C41.197019,126.73818 42.3214346,116.264733 43.1565195,110.700018 C46.8086673,113.852805 53.8355005,123.099159 53.8355005,123.099159 L51.3850909,139.278839 Z" id="Fill-13" fill="#F9F9F9"></path>
                <polygon id="Fill-15" fill="#64CCC9" points="49.2102917 131.72569 44.4074745 125.813742 45.3313906 118.253203 50.6249371 124.023632"></polygon>
                <polygon id="Fill-17" fill="#64CCC9" points="18.3128332 140.6217 13.0191069 134.851091 14.4337522 127.149213 19.2365694 133.060981"></polygon>
                <path d="M165.463516,105.219423 C165.463516,105.219423 168.555884,99.8388432 168.739301,99.3756264 C168.921818,98.9111508 176.499261,88.3278342 176.784815,87.6693327 C177.070729,87.0108312 178.756543,80.0508911 178.646853,79.4321299 C178.537702,78.8135485 175.357223,71.2753067 175.357223,71.2753067 C175.357223,71.2753067 174.090749,70.6058362 173.762937,72.0521299 C173.434226,73.4984236 172.935225,72.6748472 172.555265,73.1585634 C172.175125,73.6420999 172.598781,79.9108112 172.598781,79.9108112 L171.55007,83.7803616 L170.330529,84.3198222 L170.082378,75.7145275 C170.082378,75.7145275 169.408591,74.9846374 168.824895,75.7348472 C168.240839,76.4854166 167.498002,84.9632188 167.498002,84.9632188 C167.498002,84.9632188 164.486733,89.9539481 163.868332,91.1225994 C163.250829,92.2914306 162.545215,95.873988 162.545215,95.873988 L157.722078,101.127435 L165.463516,105.219423 Z" id="Fill-31" fill="#FFAE94"></path>
                <path d="M88.2244376,53.0021239 C88.2244376,53.0021239 87.7836983,57.9033027 101.173648,52.8124136 C101.173648,52.8124136 126.462839,60.2346713 131.302519,79.5946513 C136.142739,98.9548112 137.860382,114.92644 137.860382,114.92644 L159.970891,95.0465994 L170.390392,104.5064 C163.587435,114.75579 139.057085,148.585181 124.995866,125.863642 C116.815487,112.644342 120.920422,95.5660999 120.920422,95.5660999 L127.911291,146.65571 C91.8632787,160.930376 61.4954266,147.731035 61.4954266,147.731035 L68.2176444,93.6839221 L74.9132488,128.781225 C74.9132488,128.781225 91.8539281,149.347259 69.107035,150.168138 C69.107035,150.168138 60.135986,146.018248 54.3644775,139.500665 C42.3138282,125.892414 50.1066953,90.8161499 57.589013,76.0753906 C62.4696923,66.4598661 71.4013606,57.9095964 88.2244376,53.0021239" id="Fill-33" fill="#E89CAE"></path>
                <path d="M102.094813,54.0971928 C102.094813,54.0971928 96.3882198,58.5196903 87.4261618,54.0971928 L88.7169111,39.8667632 L100.804783,39.8667632 L102.094813,54.0971928 Z" id="Fill-35" fill="#FFAE94"></path>
                <polygon id="Fill-37" fill="#AF821C" points="80.062022 137.695415 65.7567872 120.814795 68.7516923 99.307043 69.6421618 99.4307592 66.7028212 120.540569 80.7478561 137.114236"></polygon>
                <path d="M59.3548651,122.973518 L58.7192008,122.337674 C58.8204396,122.236076 61.260959,119.859752 66.263017,120.229103 L66.1966633,121.125866 C61.5997403,120.785646 59.376983,122.95158 59.3548651,122.973518" id="Fill-39" fill="#AF821C"></path>
                <polygon id="Fill-41" fill="#AF821C" points="123.841295 120.917347 120.179077 97.6914126 121.067209 97.5513327 124.729427 120.777267"></polygon>
                <path d="M96.3663896,157.609439 L94.8242517,157.552076 C94.8271289,157.46846 95.1200559,149.083445 93.8490869,137.89773 C92.6791768,127.600148 89.9070689,112.752935 83.3441718,100.498729 C79.3257303,92.9951928 72.0595564,84.5945335 60.2651508,87.1825055 L59.9342817,85.6750729 C66.9647113,84.1322158 76.9686474,85.3247832 84.7046913,99.7699181 C91.3871688,112.247461 94.2015345,127.310997 95.3858302,137.750458 C96.6672288,149.045862 96.3696264,157.525103 96.3663896,157.609439" id="Fill-43" fill="#5F894C"></path>
                <path d="M97.9837103,144.337522 C95.3998741,129.363357 91.9115425,108.66048 89.964989,95.0694905 C88.0497243,81.6971628 94.1661279,74.4734266 99.6342797,70.7680519 L100.499934,72.0456743 C95.3962777,75.503976 89.6905834,82.2680919 91.4927413,94.8506494 C93.4365974,108.423297 96.9225914,129.110709 99.5046294,144.075345 L97.9837103,144.337522 Z" id="Fill-45" fill="#5F894C"></path>
                <path d="M99.6777782,143.015215 C99.6054905,142.821189 97.9090669,138.137592 97.9090669,127.226104 C97.9090669,114.814915 99.6973786,107.634695 103.3765,105.275455 C105.137838,104.146184 107.278238,104.146364 109.738717,105.275634 L109.094961,106.678412 C107.115321,105.769421 105.517618,105.735794 104.209606,106.574655 C100.277658,109.095914 99.4522837,119.196593 99.4522837,127.226104 C99.4522837,137.809241 101.107888,142.432597 101.124611,142.478092 L99.6777782,143.015215 Z" id="Fill-47" fill="#5F894C"></path>
                <path d="M59.7231009,82.3418721 C59.8647992,79.86395 60.6917922,77.8963576 60.6917922,77.8963576 C60.6917922,77.8963576 61.2880759,79.9461279 61.146018,82.4235105 C61.0136703,84.7201738 60.2942098,86.5773566 60.1893746,86.837017 C60.3344895,87.072042 61.3591049,88.7826713 61.8771668,91.0268272 C62.4353287,93.4452288 62.1938302,95.5663876 62.1938302,95.5663876 C62.1938302,95.5663876 61.0467572,93.7654885 60.4878761,91.3470869 C60.1604236,89.9279461 60.1084555,88.6116623 60.1219421,87.7656084 C60.0316723,88.8781558 59.768955,90.8568971 59.0038202,92.9473067 C57.8382258,96.1288651 55.9797842,98.3724815 55.9797842,98.3724815 C55.9797842,98.3724815 56.0116124,95.459035 57.1759481,92.2778362 C57.7855385,90.6153986 58.5747692,89.2068671 59.1901139,88.2394346 C58.2203437,89.5174166 56.580024,91.4537203 54.3908931,93.2143397 C50.7159081,96.1705834 46.8875365,97.5115025 46.8875365,97.5115025 C46.8875365,97.5115025 49.0178661,94.0596743 52.6933906,91.1036104 C55.1634006,89.116957 57.7001239,87.8607333 59.0994845,87.2495245 C57.4260779,87.8702637 53.826977,89.0308232 49.5789051,89.3552188 C43.6953686,89.8047692 38.7970669,88.4798541 38.7970669,88.4798541 C38.7970669,88.4798541 43.4373267,86.4257682 49.3208631,85.9762178 C53.8580859,85.6297043 57.8090949,86.3387353 59.3801838,86.6812927 C58.0054585,86.3372967 55.0947093,85.4754186 52.1321718,83.7595744 C48.0504336,81.3963776 45.4205634,78.3085055 45.4205634,78.3085055 C45.4205634,78.3085055 49.4077163,79.0517023 53.4896344,81.4156184 C55.9148691,82.8198342 57.8272567,84.4799341 58.9804436,85.5962577 C58.2266374,84.7331209 57.2361878,83.4634106 56.3850989,81.9185754 C54.7507133,78.9508232 54.2772468,76.0758581 54.2772468,76.0758581 C54.2772468,76.0758581 56.4545095,78.0118022 58.0892547,80.9791948 C59.0874366,82.789984 59.6407433,84.5716424 59.9210829,85.6872468 C59.7799241,84.8552188 59.647037,83.6588751 59.7231009,82.3418721" id="Fill-49" fill="#5F894C"></path>
                <path d="M81.3002098,92.8653986 C81.4865035,89.6063377 82.5742358,87.0185455 82.5742358,87.0185455 C82.5742358,87.0185455 83.3584316,89.7144096 83.1715984,92.9727512 C82.9975325,95.9933706 82.0514985,98.436048 81.9133966,98.7775265 C82.1045455,99.0866374 83.4519381,101.336547 84.1332767,104.287936 C84.8674825,107.468955 84.5497403,110.258685 84.5497403,110.258685 C84.5497403,110.258685 83.041049,107.890274 82.3061239,104.709435 C81.8752747,102.842721 81.8069431,101.111592 81.8247453,99.9988651 C81.7060639,101.462062 81.3606294,104.064599 80.3541758,106.81369 C78.821029,110.998466 76.3767333,113.949495 76.3767333,113.949495 C76.3767333,113.949495 76.4186314,110.117706 77.9501598,105.933471 C78.7517982,103.747037 79.7899001,101.89435 80.5992707,100.621942 C79.3238062,102.302901 77.1663237,104.849514 74.287043,107.165059 C69.4534765,111.053491 64.4185115,112.817167 64.4185115,112.817167 C64.4185115,112.817167 67.2202897,108.277067 72.0543956,104.389175 C75.303027,101.776208 78.6397702,100.1242 80.48005,99.320044 C78.2790509,100.136607 73.5454645,101.662921 67.9582717,102.089455 C60.2198901,102.680883 53.7774725,100.938426 53.7774725,100.938426 C53.7774725,100.938426 59.8805694,98.2366274 67.618951,97.6453786 C73.5864635,97.1897143 78.7827273,98.1219021 80.849041,98.5727113 C79.0411289,98.1202837 75.2127572,96.9866973 71.3164136,94.7297742 C65.9480619,91.6219421 62.489041,87.5605235 62.489041,87.5605235 C62.489041,87.5605235 67.7331369,88.538026 73.1016683,91.6471169 C76.2914985,93.49405 78.8066434,95.6772468 80.3232468,97.1456583 C79.3320779,96.0102737 78.0294605,94.3406434 76.9099001,92.3086753 C74.7601499,88.4051389 74.1374326,84.6240599 74.1374326,84.6240599 C74.1374326,84.6240599 77.0012488,87.1703137 79.1511788,91.072951 C80.4642258,93.4546693 81.1917782,95.7980859 81.5604096,97.2654186 C81.375015,96.171033 81.2002298,94.5974266 81.3002098,92.8653986" id="Fill-51" fill="#5F894C"></path>
                <path d="M105.832052,108.840246 C104.137247,110.397848 102.316028,111.173053 102.316028,111.173053 C102.316028,111.173053 103.243181,109.423942 104.937806,107.867059 C106.509255,106.424002 108.187696,105.652573 108.425239,105.547558 C108.480264,105.297429 108.903381,103.497249 110.008016,101.669197 C111.198605,99.6992667 112.729235,98.4437622 112.729235,98.4437622 C112.729235,98.4437622 112.329674,100.382943 111.139624,102.353413 C110.440843,103.509297 109.625179,104.418827 109.069714,104.973213 C109.848336,104.290975 111.301283,103.143902 113.160623,102.247139 C115.991353,100.882484 118.677327,100.589736 118.677327,100.589736 C118.677327,100.589736 116.77447,102.507878 113.944639,103.873073 C112.465439,104.5857 111.030294,105.013493 109.995788,105.259846 C111.466717,105.03561 113.808875,104.80634 116.402961,105.048737 C120.758386,105.454951 124.172092,107.035211 124.172092,107.035211 C124.172092,107.035211 120.524799,107.956609 116.169375,107.549676 C113.242621,107.276709 110.742941,106.473992 109.416947,105.976969 C110.931393,106.644641 114.076268,108.197029 117.112711,110.724761 C121.318705,114.22586 123.722721,118.271275 123.722721,118.271275 C123.722721,118.271275 119.307956,116.641205 115.102142,113.140286 C111.858725,110.440286 109.687217,107.416789 108.863101,106.173872 C109.555768,107.290915 110.936068,109.744202 111.799564,112.799886 C112.989614,117.008757 112.745239,120.762503 112.745239,120.762503 C112.745239,120.762503 110.571752,117.692613 109.382062,113.482843 C108.675189,110.981724 108.474509,108.641904 108.428296,107.154252 C108.372372,108.215371 108.211433,109.699966 107.780224,111.277888 C106.951073,114.308757 105.409115,116.527738 105.409115,116.527738 C105.409115,116.527738 105.210593,113.833133 106.039205,110.802444 C106.5445,108.952633 107.327077,107.409596 107.861143,106.48604 C107.417526,107.130875 106.733311,108.012893 105.832052,108.840246" id="Fill-53" fill="#5F894C"></path>
                <path d="M95.2470809,89.8648112 C97.3331748,91.8385175 98.4563317,94.0375385 98.4563317,94.0375385 C98.4563317,94.0375385 96.1986893,93.0361199 94.1134945,91.0624136 C92.180967,89.2322038 91.0748931,87.2106653 90.9236643,86.924032 C90.6073606,86.8774585 88.3301179,86.5073886 85.9588292,85.2916244 C83.4035844,83.9814545 81.7077003,82.1855904 81.7077003,82.1855904 C81.7077003,82.1855904 84.155952,82.5143017 86.7117363,83.8239321 C88.2114366,84.593023 89.4142537,85.5288072 90.1525954,86.1718442 C89.2358721,85.2621339 87.6816863,83.5538422 86.4037043,81.317958 C84.4591289,77.9136024 83.8608671,74.5962797 83.8608671,74.5962797 C83.8608671,74.5962797 86.413954,76.7976384 88.3590689,80.2005554 C89.3748731,81.9795165 90.0319361,83.7284476 90.4286194,84.9943816 C90.0215065,83.1834126 89.5325754,80.2881279 89.6084595,77.0385974 C89.7348731,71.583033 91.4045035,67.1968591 91.4045035,67.1968591 C91.4045035,67.1968591 92.8684196,71.6558601 92.7412867,77.1117842 C92.6560519,80.7783177 91.8745534,83.958977 91.3717762,85.6525235 C92.0707373,83.7095664 93.729039,79.6605554 96.6108372,75.6615345 C100.601946,70.1221738 105.427421,66.7780579 105.427421,66.7780579 C105.427421,66.7780579 103.782965,72.4145215 99.7918561,77.9537023 C96.7138741,82.2251508 93.1397682,85.1907453 91.6648831,86.3246913 C92.9946533,85.3655305 95.9280599,83.4339021 99.6555524,82.0935225 C104.790138,80.2462298 109.483085,80.2235724 109.483085,80.2235724 C109.483085,80.2235724 105.851616,83.1956404 100.715952,85.0425734 C97.6647632,86.140016 94.7703776,86.5933427 92.9227253,86.7805355 C94.2483596,86.7576983 96.110038,86.8285475 98.1112567,87.2281079 C101.955632,87.9962997 104.851277,89.7222138 104.851277,89.7222138 C104.851277,89.7222138 101.514893,90.2037722 97.6710569,89.4362997 C95.3249431,88.9684076 93.3364915,88.1288272 92.1405075,87.5444116 C92.9817063,88.0403556 94.1388492,88.8152008 95.2470809,89.8648112" id="Fill-55" fill="#52773E"></path>
                <path d="M102.947736,74.5895904 C104.426398,75.9885914 105.222641,77.5476324 105.222641,77.5476324 C105.222641,77.5476324 103.622242,76.8377023 102.14412,75.4387013 C100.77407,74.1411189 99.9902338,72.7081319 99.8827013,72.5049351 C99.6586454,72.4718482 98.0442198,72.2096703 96.3634406,71.3477922 C94.5519321,70.4188412 93.3496543,69.1458941 93.3496543,69.1458941 C93.3496543,69.1458941 95.0852787,69.3787612 96.8971469,70.3073526 C97.9602438,70.8523876 98.812951,71.5159241 99.3362278,71.9715884 C98.6863576,71.3267532 97.5845994,70.1158442 96.6786653,68.5307293 C95.3001638,66.1173626 94.8761479,63.7658541 94.8761479,63.7658541 C94.8761479,63.7658541 96.686038,65.3263337 98.0648991,67.7386214 C98.7848991,68.9998801 99.2506334,70.2395604 99.5318721,71.1368631 C99.2432607,69.8531269 98.8967473,67.8008392 98.9505135,65.4973427 C99.0400639,61.6297702 100.22382,58.5204995 100.22382,58.5204995 C100.22382,58.5204995 101.261562,61.6813786 101.171293,65.5491309 C101.110873,68.1482517 100.557027,70.403017 100.200444,71.6036763 C100.696208,70.2260739 101.871512,67.3557842 103.91445,64.5209191 C106.74374,60.5941858 110.164639,58.2236164 110.164639,58.2236164 C110.164639,58.2236164 108.998685,62.2192208 106.169574,66.1457742 C103.987457,69.1737662 101.45379,71.2762238 100.408316,72.0798402 C101.350933,71.3999401 103.430553,70.0307892 106.072831,69.0806194 C109.712751,67.770989 113.039425,67.754985 113.039425,67.754985 C113.039425,67.754985 110.465119,69.8617582 106.824659,71.171029 C104.661602,71.9491109 102.609674,72.2704496 101.300044,72.4031568 C102.239604,72.386973 103.559305,72.4373227 104.978086,72.7203596 C107.703261,73.265035 109.756088,74.4885315 109.756088,74.4885315 C109.756088,74.4885315 107.390913,74.8298302 104.666098,74.2858741 C103.002941,73.9541059 101.593331,73.3589011 100.745479,72.9447752 C101.341762,73.2963237 102.162102,73.8454945 102.947736,74.5895904" id="Fill-57" fill="#52773E"></path>
                <path d="M89.6821319,105.94363 C86.8701039,107.601572 84.1143596,108.136537 84.1143596,108.136537 C84.1143596,108.136537 85.9186753,105.985528 88.7305235,104.328845 C91.3377363,102.793361 93.8938801,102.221353 94.2545994,102.146008 C94.4051089,101.815319 95.5255684,99.44403 97.5996144,97.2361978 C99.8347792,94.8571768 102.329964,93.5696643 102.329964,93.5696643 C102.329964,93.5696643 101.200873,96.1405534 98.9660679,98.5206533 C97.6542797,99.9165974 96.2534805,100.936178 95.318955,101.540553 C96.6008931,100.825229 98.9558182,99.6648492 101.800573,98.9723616 C106.131003,97.9191548 109.942831,98.3093646 109.942831,98.3093646 C109.942831,98.3093646 106.735019,100.405528 102.405848,101.459814 C100.142991,102.009704 98.025968,102.177477 96.5183556,102.212362 C98.6245894,102.337337 101.941013,102.71406 105.466747,103.819415 C111.386428,105.67372 115.652482,108.877397 115.652482,108.877397 C115.652482,108.877397 110.320993,109.07394 104.401313,107.218555 C100.422971,105.971862 97.1942997,104.117736 95.5025514,103.035578 C97.4052288,104.410663 101.306428,107.495658 104.768326,111.901792 C109.56359,118.00399 111.698416,124.327367 111.698416,124.327367 C111.698416,124.327367 106.058715,120.757756 101.26363,114.655379 C97.565988,109.949485 95.4507632,105.112322 94.6762777,103.14437 C95.3056484,104.898695 96.4926414,108.710703 96.7843097,113.20405 C97.1869271,119.39418 95.7354186,124.527686 95.7354186,124.527686 C95.7354186,124.527686 93.6311628,119.625788 93.2294446,113.434759 C92.9902837,109.756537 93.4058482,106.452162 93.7825714,104.375059 C93.3905634,105.830344 92.7272068,107.841632 91.6612328,109.902012 C89.6127213,113.859495 86.8165175,116.479834 86.8165175,116.479834 C86.8165175,116.479834 87.3401538,112.68383 89.3875864,108.726527 C90.636977,106.310643 92.1796543,104.402751 93.1941998,103.280134 C92.3877063,104.043111 91.1771568,105.063411 89.6821319,105.94363" id="Fill-59" fill="#52773E"></path>
                <path d="M78.6541918,120.669734 C74.9554705,118.522322 72.575011,115.718565 72.575011,115.718565 C72.575011,115.718565 76.1901159,116.398106 79.8875784,118.545878 C83.314951,120.537926 85.6096364,123.090114 85.927019,123.45371 C86.4013846,123.413431 89.8291169,123.170673 93.6821239,124.121922 C97.8345315,125.147437 100.906939,127.170593 100.906939,127.170593 C100.906939,127.170593 97.2454406,127.531493 93.0926733,126.507237 C90.6559301,125.905379 88.5921339,124.960064 87.3019241,124.280523 C88.9418841,125.285538 91.7790869,127.230294 94.3963696,130.034589 C98.3793866,134.30424 100.381145,138.908535 100.381145,138.908535 C100.381145,138.908535 95.9275385,136.590653 91.943982,132.322981 C89.8631029,130.091592 88.3125135,127.781263 87.3046214,126.081962 C88.5140919,128.567796 90.213033,132.597207 91.2144515,137.33367 C92.897029,145.285319 91.9768891,152.21433 91.9768891,152.21433 C91.9768891,152.21433 88.3295964,146.251493 86.6480979,138.299305 C85.5177483,132.955229 85.5625235,128.077247 85.7123137,125.450254 C85.3634625,128.505938 84.3446014,134.942242 81.5349111,141.725059 C77.643962,151.119405 71.7926134,157.617387 71.7926134,157.617387 C71.7926134,157.617387 72.2488172,148.88442 76.1397662,139.490254 C79.1406054,132.245658 83.3072188,126.72446 85.0575884,124.576507 C83.4580879,126.421463 79.8663596,130.224659 74.9216643,133.442362 C68.1104356,137.876368 61.3153906,139.51435 61.3153906,139.51435 C61.3153906,139.51435 65.5631029,133.96402 72.3757702,129.530374 C76.4233427,126.895828 80.4640819,125.249035 83.0783077,124.345618 C81.1643017,124.832032 78.4416444,125.365918 75.4041219,125.471293 C69.5687772,125.672332 64.7808851,124.161303 64.7808851,124.161303 C64.7808851,124.161303 69.4524336,122.321922 75.2866993,122.119804 C78.848038,121.995728 82.0175485,122.532851 83.950975,122.970893 C82.5618641,122.539504 80.6194466,121.812132 78.6541918,120.669734" id="Fill-69" fill="#5F894C"></path>
                <path d="M100.047476,5.08139362 C100.164325,8.01600029 98.0523077,9.90872155 94.8758096,9.99777874 C91.6978716,10.0866498 90.1737506,8.21021383 90.0581207,5.27588634 C89.941051,2.34127967 91.5302969,0.092422691 94.7070166,0.003365498 C97.8845115,-0.0855055776 99.9310712,2.14799671 100.047476,5.08139362" id="Fill-73" fill="#482601"></path>
                <path d="M81.4605375,28.6090849 C81.4605375,28.6090849 79.8592388,19.7281259 82.7021958,14.2382158 C86.277021,7.33437962 96.5882697,4.2385954 105.186012,10.8752188 C111.264114,15.5674466 107.902915,29.4891249 107.902915,29.4891249 L89.9658521,21.8634905 L81.4605375,28.6090849 Z" id="Fill-77" fill="#482601"></path>
                <path d="M83.7112747,27.0475984 C83.7112747,27.0475984 82.1946713,26.0679381 81.0215245,27.6309351 C79.8476583,29.1951908 80.6291568,35.0596663 83.5622038,35.0596663 C86.4952507,35.0596663 83.7112747,27.0475984 83.7112747,27.0475984" id="Fill-79" fill="#FFAE94"></path>
                <path d="M106.381169,27.0475984 C106.381169,27.0475984 107.897592,26.0679381 109.0702,27.6309351 C110.243167,29.1951908 109.462567,35.0596663 106.529161,35.0596663 C103.597013,35.0596663 106.381169,27.0475984 106.381169,27.0475984" id="Fill-81" fill="#FFAE94"></path>
                <path d="M106.871107,25.4186973 C106.871107,18.8392567 101.55778,14.5322038 95.0002777,14.5322038 C88.4434945,14.5322038 83.126032,18.8392567 83.126032,25.4186973 C83.126032,25.4186973 82.6108472,33.8127033 82.6108472,34.2212547 C82.6108472,40.4712647 90.2645335,48.404032 95.0002777,48.404032 C100.46753,48.404032 107.388989,38.9568192 107.388989,34.2212547 C107.388989,33.8127033 106.871107,25.4186973 106.871107,25.4186973" id="Fill-83" fill="#FFAE94"></path>
                <path d="M89.0888511,27.2117023 C87.0133666,27.2117023 85.1925075,29.0266274 84.8531868,31.4335205 C84.6735465,32.7102438 84.9303297,33.9698841 85.576963,34.9793946 C86.2173027,35.9784755 87.1635165,36.6121618 88.2418981,36.7644695 C88.4051748,36.7874865 88.5716883,36.7988152 88.736044,36.7988152 C90.8111688,36.7988152 92.632028,34.9842498 92.9715285,32.5775365 C93.1515285,31.3004535 92.8943856,30.0413526 92.2475724,29.0318422 C91.6074126,28.0324016 90.6611988,27.3985355 89.5833566,27.2467672 C89.4195405,27.2233906 89.2535664,27.2117023 89.0888511,27.2117023 M88.736044,37.223011 C88.5515485,37.223011 88.3656144,37.2100639 88.1823776,37.1841698 C86.9800999,37.0147792 85.9276124,36.3131209 85.22002,35.2079461 C84.5189011,34.113021 84.2396404,32.7516024 84.4334865,31.3741798 C84.8019381,28.7592348 86.8033367,26.7878661 89.0888511,26.7878661 C89.2731668,26.7878661 89.4592807,26.800993 89.641978,26.8265275 C90.8444356,26.9959181 91.8969231,27.6979361 92.6045155,28.8029311 C93.3061738,29.8976763 93.5852547,31.2594545 93.3914086,32.6365175 C93.022957,35.2514625 91.0217383,37.223011 88.736044,37.223011" id="Fill-91" fill="#101820"></path>
                <path d="M100.955311,27.2117023 C100.790775,27.2117023 100.624801,27.2233906 100.461524,27.2467672 C99.3831429,27.3985355 98.4371089,28.0324016 97.7969491,29.0318422 C97.1497762,30.0413526 96.8928132,31.3004535 97.072993,32.5775365 C97.4123137,34.9842498 99.232993,36.7988152 101.308657,36.7988152 C101.473193,36.7988152 101.639167,36.7874865 101.802983,36.7644695 C104.041025,36.4487053 105.561225,34.0572767 105.191514,31.4335205 C104.852194,29.0266274 103.030975,27.2117023 100.955311,27.2117023 M101.308657,37.223011 L101.308657,37.223011 C99.0231429,37.2228312 97.0217443,35.2514625 96.6529331,32.6365175 C96.4590869,31.2594545 96.7383477,29.8976763 97.4396464,28.8029311 C98.1475984,27.6979361 99.1995465,26.9959181 100.402543,26.8265275 C100.584881,26.800993 100.771714,26.7878661 100.955311,26.7878661 C103.241365,26.7878661 105.242224,28.7592348 105.611035,31.3741798 C106.013473,34.2299041 104.331614,36.8363976 101.861964,37.1841698 C101.678907,37.2100639 101.493333,37.223011 101.308657,37.223011" id="Fill-93" fill="#101820"></path>
                <path d="M93.3588791,32.3994605 L93.0303477,32.1306294 C93.5976803,31.4386813 94.2788392,31.0729271 94.9997383,31.0729271 C95.720997,31.0729271 96.4021558,31.4386813 96.9691289,32.1306294 L96.6411369,32.3994605 C96.1576004,31.8089311 95.5897283,31.4971229 94.9997383,31.4971229 C94.4101079,31.4971229 93.8425954,31.8092907 93.3588791,32.3994605" id="Fill-95" fill="#101820"></path>
            </g>
        </g>
    </g>
</svg>