<?xml version="1.0" encoding="UTF-8"?>
<svg width="184px" height="136px" viewBox="0 0 184 136" version="1.1" xmlns="http://www.w3.org/2000/svg" xmlns:xlink="http://www.w3.org/1999/xlink">
    <title>Graphic/Options/Immigration</title>
    <defs>
        <rect id="path-1" x="0" y="0" width="184" height="136"></rect>
    </defs>
    <g id="Graphic/Options/Immigration" stroke="none" stroke-width="1" fill="none" fill-rule="evenodd">
        <mask id="mask-2" fill="white">
            <use xlink:href="#path-1"></use>
        </mask>
        <g id="Rectangle"></g>
        <g id="Group-130" mask="url(#mask-2)">
            <g transform="translate(-89.000000, 5.000000)" id="Group-129">
                <g id="Group-128" transform="translate(0.000000, 0.340000)">
                    <path d="M189.720353,136.757765 L266.448588,139.97149 L260.377216,81.9138431 C260.103098,79.293451 257.893686,77.3032549 255.258784,77.3032549 L191.177608,77.3032549 C189.206627,77.3032549 187.609373,78.900902 187.609373,80.8714902 L189.720353,136.757765 Z" id="Fill-8" fill="#E89CAE"></path>
                    <path d="M178.340902,139.971608 L101.612275,139.971608 L103.526784,80.832 C103.526784,78.9049412 105.044824,77.3425882 106.91698,77.3425882 L173.036196,77.3425882 C174.908353,77.3425882 176.426392,78.9049412 176.426392,80.832 L178.340902,139.971608 Z" id="Fill-12" fill="#E89CAE"></path>
                    <polygon id="Fill-20" fill="#64CCC9" points="226.591882 72.9656471 223.326784 72.9656471 223.326784 67.6981961 226.591882 63.2927059"></polygon>
                    <polygon id="Fill-21" fill="#64CCC9" points="230.382471 72.9656471 233.647569 72.9656471 233.647569 67.6981961 230.382471 63.2927059"></polygon>
                    <polygon id="Fill-22" fill="#64CCC9" points="226.591765 66.8286275 230.382353 66.8286275 230.382353 63.292549 226.591765 63.292549"></polygon>
                    <path d="M245.381333,137.82702 L211.593098,137.82702 C205.475843,137.82702 201.506824,134.096824 201.938196,128.761137 L203.748,91.8372157 C204.662118,80.3842745 215.420549,71.5062353 228.385255,71.5062353 L228.588784,71.5062353 C241.55349,71.5062353 252.311922,80.3842745 253.226431,91.8372157 L255.035843,128.761137 C255.467608,134.096824 251.498588,137.82702 245.381333,137.82702" id="Fill-23" fill="#101820"></path>
                    <path d="M208.988118,127.476588 C208.988118,128.768745 210.110863,129.815804 211.495961,129.815804 L245.478314,129.815804 C246.863412,129.815804 247.986157,128.768745 247.986157,127.476588 L247.986157,108.490314 L208.988118,108.490314 L208.988118,127.476588 Z" id="Fill-25" fill="#000000"></path>
                    <path d="M245.478235,101.266784 L211.495882,101.266784 C210.110784,101.266784 208.988039,102.314235 208.988039,103.606392 L208.988039,108.490314 L247.986471,108.490314 L247.986471,103.606392 C247.986471,102.314235 246.863333,101.266784 245.478235,101.266784" id="Fill-26" fill="#000000"></path>
                    <polygon id="Fill-29" fill="#E89CAE" points="210.606275 108.893725 246.367843 108.893725 246.367843 108.087059 210.606275 108.087059"></polygon>
                    <polygon id="Fill-35" fill="#E89CAE" points="213.703529 113.255686 214.568235 113.255686 214.568235 108.490588 213.703529 108.490588"></polygon>
                    <path d="M116.044235,138.830392 L165.489725,139.214706 C165.489725,139.214706 173.132078,138.148824 169.259922,113.850392 C169.230118,113.662549 169.212471,113.382157 169.204235,113.033529 L114.157569,113.033529 C114.12698,113.448039 114.090902,113.771961 114.04698,113.98451 C109.132078,138.010392 116.044235,138.830392 116.044235,138.830392" id="Fill-36" fill="#FFFFFF"></path>
                    <path d="M128.730392,62.0980392 C128.730392,62.0980392 113.867255,53.5031373 119.815882,40.6698039 C125.76451,27.8376471 164.780588,33.0419608 165.855098,44.3258824 C166.938235,55.7003922 145.83,63.6145098 145.83,63.6145098 L128.730392,62.0980392 Z" id="Fill-37" fill="#64CCC9"></path>
                    <path d="M147.623216,42.2812941 C147.623216,42.2812941 142.092627,51.3071765 140.736157,52.1793333 C138.997725,50.1746275 133.504,42.2812941 133.504,42.2812941 L134.746353,28.4087451 L146.381647,28.4087451 L147.623216,42.2812941 Z" id="Fill-38" fill="#564539"></path>
                    <path d="M172.123843,119.882 C172.323451,85.507098 167.853255,53.0282745 167.755216,52.6361176 L167.755216,52.629451 C167.754431,52.629451 167.754431,52.629451 167.754039,52.629451 C167.633647,52.1506275 167.432078,51.7792549 167.134039,51.5416078 C163.654039,48.7682745 155.103451,44.2023922 148.917569,42.1310196 C148.15051,44.9898431 144.476392,53.5361176 140.736392,53.5337647 C137.184235,53.5361176 133.079529,44.9898431 132.312078,42.1310196 C126.126588,44.2023922 117.56698,48.7682745 114.08698,51.5416078 C113.788549,51.7792549 113.587373,52.1506275 113.46698,52.629451 C113.466588,52.629451 113.466196,52.629451 113.466196,52.629451 C113.465804,52.6314118 113.465412,52.6337647 113.465412,52.6361176 C113.367765,53.0274902 108.822667,85.5933725 109.255608,120.036902 C109.914824,126.652588 171.040314,128.006706 172.123843,119.882" id="Fill-39" fill="#64CCC9"></path>
                    <path d="M114.086902,51.5417647 C110.410039,54.4723529 107.384941,59.2613725 106.407686,64.0892157 C104.021804,75.8727451 99.4492549,78.162549 96.9598431,89.584902 C91.5265098,114.519804 113.060235,113.033529 113.060235,113.033529 L118.228471,79.2358824 C118.228471,79.2358824 117.566902,48.7680392 114.086902,51.5417647" id="Fill-40" fill="#64CCC9"></path>
                    <path d="M167.174784,51.5417647 C170.852039,54.4723529 173.68851,59.3033333 174.854392,64.0892157 C178.239098,77.9829412 202.221451,110.403333 168.369294,115.548431 C164.184588,118.590392 166.56851,118.837451 166.56851,118.837451 L163.033216,79.2358824 C163.033216,79.2358824 163.695176,48.7680392 167.174784,51.5417647" id="Fill-41" fill="#64CCC9"></path>
                    <path d="M134.914118,97.2441176 C133.798824,94.0511765 133.457255,85.8245098 133.898431,72.7915686 C134.225882,63.1119608 134.885882,56.1664706 134.892157,56.0778431 L135.702745,56.1390196 C135.676078,56.4915686 133.09098,89.5590196 135.681176,96.9758824 L134.914118,97.2441176 Z" id="Fill-49" fill="#FFFFFF"></path>
                    <path d="M146.841961,103.676824 L146.042745,103.531333 C147.51098,95.4611373 145.560392,56.5399608 145.540784,56.1281961 L146.352157,56.0889804 C146.433333,57.7732941 148.326667,95.5152549 146.841961,103.676824" id="Fill-50" fill="#FFFFFF"></path>
                    <path d="M166.551294,188.693647 C167.421882,176.454431 165.666196,147.270902 165.316784,131.839529 C165.274039,129.963451 165.827765,123.152078 160.838353,120.682667 C155.848157,118.213255 145.314824,120.086196 146.442275,131.891686 C146.783059,135.460314 147.119529,138.926196 147.454824,142.291686 C150.023059,168.083451 151.393647,174.089725 152.36149,188.693647 C155.58149,189.724235 164.852078,189.698353 166.551294,188.693647" id="Fill-59" fill="#FFFFFF"></path>
                    <path d="M134.936706,187.902431 C128.422588,177.504 118.048863,150.332627 111.113569,136.543216 C110.270431,134.866745 106.583373,129.112627 109.830431,124.589882 C113.076706,120.067137 123.256706,116.775373 127.803373,127.729098 C129.17749,131.039294 130.507294,134.257725 131.791216,137.387137 C141.631216,161.365569 141.464941,167.891843 147.465725,181.241255 C145.10651,183.662431 136.908471,187.991843 134.936706,187.902431" id="Fill-60" fill="#FFFFFF"></path>
                    <path d="M129.380275,17.5397647 C129.380275,24.8346667 135.344196,31.5076078 142.701059,31.5076078 C150.058314,31.5076078 156.022235,24.8346667 156.022235,17.5397647 C156.022235,10.2440784 150.058314,4.3307451 142.701059,4.3307451 C135.344196,4.3307451 129.380275,10.2440784 129.380275,17.5397647" id="Fill-62" fill="#151C28"></path>
                    <path d="M135.002588,20.0598824 C135.948471,13.7834118 141.32651,9.48419608 147.069647,9.48419608 C152.812784,9.48419608 155.673176,14.299098 155.673176,20.0598824 C155.673176,20.0598824 155.630039,27.4112549 155.630039,27.7681176 C155.630039,32.0771373 151.898667,40.1896863 147.750824,40.1896863 C142.964157,40.1896863 134.801804,33.8179216 134.801804,29.6696863 C134.801804,29.3128235 134.644549,22.4359608 135.002588,20.0598824" id="Fill-63" fill="#564539"></path>
                    <path d="M133.941373,21.3966275 C133.462941,20.8185882 132.283725,20.3962353 130.999804,21.9923137 C129.71902,23.5919216 130.572745,29.5872157 133.777843,29.5872157 C136.982941,29.5872157 135.247255,22.9738824 133.941373,21.3966275" id="Fill-73" fill="#564539"></path>
                    <path d="M132.015451,22.7320392 C132.015451,22.7320392 133.47898,22.9661569 133.537804,24.3128235 C133.596235,25.6594902 133.537804,27.2402745 133.537804,27.2402745 L132.015451,22.7320392 Z" id="Fill-74" fill="#3D302A"></path>
                    <path d="M133.949059,20.8530196 C133.440039,20.2385098 132.186314,19.789098 130.820824,21.4863529 C129.459255,23.1879216 130.366314,29.5636078 133.774941,29.5636078 C137.183569,29.5636078 135.337686,22.5302745 133.949059,20.8530196" id="Fill-75" fill="#564539"></path>
                    <path d="M131.900941,22.2732549 C131.900941,22.2732549 133.457412,22.5222745 133.519765,23.9544314 C133.581725,25.3861961 133.519765,27.0673725 133.519765,27.0673725 L131.900941,22.2732549 Z" id="Fill-76" fill="#3D302A"></path>
                    <path d="M143.913059,7.24854902 C143.402863,7.29678431 142.938157,6.93835294 142.860118,6.42541176 C142.779725,5.89403922 143.145216,5.39796078 143.676196,5.31756863 L143.705608,5.31286275 C144.238157,5.23247059 144.733059,5.59796078 144.813451,6.12933333 C144.893843,6.66070588 144.528353,7.15678431 143.997373,7.23717647 L143.968353,7.2414902 C143.949922,7.24462745 143.93149,7.24698039 143.913059,7.24854902" id="Fill-77" fill="#151C28"></path>
                    <path d="M156.781843,20.2843137 C156.70851,20.2913725 156.632824,20.2898039 156.556745,20.2792157 C156.024196,20.2062745 155.652039,19.7152941 155.725373,19.1827451 L155.732431,19.1290196 C155.759882,18.9223529 155.849686,18.74 155.981059,18.5972549 C155.875176,18.4345098 155.817529,18.2388235 155.825765,18.0301961 L155.827333,17.9764706 C155.834784,17.7694118 155.906157,17.5796078 156.021451,17.4254902 C155.900275,17.2745098 155.82302,17.0862745 155.809686,16.8780392 L155.806549,16.8270588 C155.791647,16.62 155.842627,16.4235294 155.941843,16.2580392 C155.806549,16.1203922 155.710078,15.9411765 155.675569,15.7360784 L155.666549,15.6858824 C155.630078,15.4819608 155.660667,15.2819608 155.741843,15.1070588 C155.593216,14.9858824 155.479098,14.8196078 155.422627,14.6215686 L155.406941,14.5670588 C155.350078,14.3694118 155.358314,14.1678431 155.41949,13.9862745 C155.258314,13.8807843 155.126157,13.7266667 155.048902,13.5345098 L155.029686,13.487451 C154.950863,13.2968627 154.937529,13.094902 154.978314,12.9078431 C154.806941,12.8211765 154.659098,12.6827451 154.561059,12.5003922 L154.536353,12.4556863 C154.437137,12.2745098 154.401451,12.0760784 154.421451,11.885098 C154.242627,11.8184314 154.081059,11.6984314 153.963804,11.5298039 L153.931647,11.4839216 C153.813608,11.3152941 153.755961,11.1223529 153.754784,10.9305882 C153.568902,10.8843137 153.394784,10.7823529 153.25949,10.6270588 L153.224196,10.5870588 C153.087333,10.432549 153.00851,10.2466667 152.986157,10.0556863 C152.796745,10.0301961 152.612431,9.94862745 152.460667,9.80941176 L152.418706,9.77098039 C152.266157,9.63254902 152.167725,9.45647059 152.125373,9.26980392 C151.934392,9.26509804 151.742235,9.20431373 151.576745,9.0827451 L151.529294,9.04862745 C151.363412,8.92745098 151.246941,8.76392157 151.183804,8.58352941 C150.993216,8.59960784 150.796353,8.56 150.617922,8.45764706 L150.569686,8.42980392 C150.391647,8.32862745 150.257137,8.17921569 150.174392,8.00745098 C149.987333,8.0454902 149.786941,8.02823529 149.598706,7.94705882 L149.548118,7.9254902 C149.359098,7.84509804 149.20851,7.71215686 149.106941,7.55098039 C148.92498,7.60980392 148.723804,7.61568627 148.526941,7.55647059 L148.475961,7.54117647 C148.278314,7.48313725 148.113216,7.36784314 147.993216,7.21882353 C147.818706,7.29803922 147.618706,7.32666667 147.415961,7.28980392 L147.36302,7.28039216 C147.159882,7.24431373 146.982627,7.14784314 146.846549,7.01254902 C146.681451,7.11098039 146.486157,7.16156863 146.280275,7.14705882 L146.226157,7.14352941 C146.019882,7.12980392 145.832824,7.05294118 145.682627,6.93333333 C145.529686,7.04862745 145.341059,7.12 145.135569,7.12823529 L145.07949,7.13058824 C144.542627,7.15372549 144.08851,6.7372549 144.06498,6.2 C144.042235,5.66313725 144.457922,5.20941176 144.995176,5.18627451 L145.058314,5.18352941 C145.301843,5.17372549 145.527725,5.25411765 145.703804,5.39490196 C145.883412,5.25960784 146.110471,5.1854902 146.352824,5.20117647 L146.417922,5.2054902 C146.65949,5.2227451 146.874784,5.32705882 147.034784,5.4854902 C147.228118,5.37058824 147.462235,5.32156863 147.701451,5.36352941 L147.765765,5.37529412 C148.004588,5.41882353 148.207333,5.54627451 148.34851,5.72156863 C148.554,5.62823529 148.792039,5.6054902 149.025373,5.6745098 L149.088902,5.69294118 C149.321843,5.76352941 149.508902,5.91333333 149.629686,6.10352941 C149.84498,6.03411765 150.08498,6.03882353 150.309294,6.13411765 L150.36851,6.15960784 C150.592431,6.25607843 150.761451,6.42627451 150.85949,6.62980392 C151.081843,6.58509804 151.319098,6.6172549 151.531255,6.73803922 L151.586549,6.76941176 C151.797922,6.89058824 151.946549,7.07882353 152.020667,7.29215686 C152.246157,7.27294118 152.478314,7.33176471 152.675176,7.47529412 L152.724196,7.51098039 C152.921059,7.6545098 153.048118,7.85843137 153.098706,8.07843137 C153.324196,8.08431373 153.54851,8.16784314 153.72851,8.33176471 L153.774784,8.37372549 C153.954,8.53803922 154.057922,8.75411765 154.084196,8.97764706 C154.306941,9.00823529 154.520275,9.11529412 154.681451,9.29686275 L154.725373,9.34705882 C154.88498,9.53019608 154.964196,9.75568627 154.965373,9.98078431 C155.184196,10.0356863 155.384588,10.1662745 155.524588,10.3654902 L155.561059,10.4172549 C155.699882,10.6172549 155.754,10.8509804 155.730078,11.0752941 C155.940667,11.1541176 156.125765,11.3058824 156.242627,11.5184314 L156.274784,11.5784314 C156.389686,11.7913725 156.416745,12.0282353 156.36851,12.2478431 C156.569294,12.3494118 156.735961,12.5203922 156.82851,12.7443137 C156.837529,12.7654902 156.845765,12.7866667 156.854784,12.8078431 C156.944588,13.0321569 156.945373,13.2698039 156.873608,13.4823529 C157.062627,13.605098 157.209686,13.7937255 157.277137,14.0270588 L157.294392,14.087451 C157.361059,14.3207843 157.336353,14.5588235 157.241451,14.7631373 C157.415176,14.905098 157.540667,15.1078431 157.58302,15.3458824 C157.586941,15.3682353 157.590863,15.3905882 157.594392,15.4129412 C157.634784,15.6505882 157.58498,15.8827451 157.470078,16.0745098 C157.626941,16.2337255 157.730471,16.4478431 157.747725,16.6890196 L157.752431,16.7568627 C157.767333,16.9968627 157.693608,17.2223529 157.559882,17.4007843 C157.700275,17.5760784 157.781059,17.8003922 157.772824,18.0419608 L157.770471,18.107451 C157.761059,18.347451 157.66498,18.5639216 157.514,18.7278431 C157.635569,18.914902 157.693216,19.145098 157.661843,19.3839216 L157.653216,19.4478431 C157.590863,19.9039216 157.221059,20.2427451 156.781843,20.2843137" id="Fill-78" fill="#151C28"></path>
                    <path d="M156.557412,21.4875686 C156.455451,21.4969804 156.350745,21.4907059 156.245255,21.4663922 C155.721725,21.3448235 155.396235,20.8216863 155.517804,20.2981569 L155.524078,20.2703137 C155.645647,19.7467843 156.168,19.4205098 156.691922,19.5416863 C157.215451,19.6628627 157.541725,20.1856078 157.420157,20.7091373 L157.41349,20.7389412 C157.316235,21.1569804 156.96251,21.4491373 156.557412,21.4875686" id="Fill-79" fill="#151C28"></path>
                    <path d="M142.096627,6.16513725 C142.025647,6.17180392 141.95349,6.17101961 141.880157,6.16160784 L141.85702,6.15847059 C141.323294,6.09337255 140.944078,5.60827451 141.009176,5.07454902 C141.074275,4.54121569 141.559765,4.16160784 142.093098,4.22670588 L142.127608,4.23101961 C142.660549,4.2992549 143.037412,4.78670588 142.969569,5.32003922 C142.910353,5.77964706 142.539373,6.12317647 142.096627,6.16513725" id="Fill-80" fill="#151C28"></path>
                    <path d="M129.102627,19.5174118 C129.096745,19.5178039 129.091255,19.5181961 129.085373,19.5189804 C128.549294,19.5601569 128.081451,19.1589804 128.040275,18.6232941 L128.035569,18.5597647 C128.017922,18.3193725 128.089686,18.0927059 128.222235,17.9127059 C128.080667,17.740549 127.996745,17.5189804 128.000535,17.2785882 L128.001451,17.215451 C128.006549,16.975451 128.097529,16.7574118 128.24498,16.5903529 C128.11949,16.4064314 128.056353,16.1781961 128.081451,15.9393725 L128.08851,15.8770196 C128.114392,15.6381961 128.22498,15.4291765 128.386941,15.2762353 C128.278314,15.0821176 128.235569,14.8499608 128.281451,14.6150588 L128.294392,14.5499608 C128.342627,14.3142745 128.472039,14.1158431 128.647333,13.9781961 C128.556745,13.7738824 128.535961,13.5381961 128.604196,13.308 L128.62302,13.2456471 C128.692824,13.0142745 128.841451,12.828 129.030078,12.7076078 C128.95949,12.4946667 128.961843,12.2562353 129.053608,12.0323137 L129.077922,11.9742745 C129.170078,11.7503529 129.336745,11.5797647 129.536745,11.4781961 C129.488118,11.2597647 129.514392,11.0232941 129.627725,10.8099608 L129.659098,10.7511373 C129.774392,10.5385882 129.957137,10.3856471 130.166941,10.3056471 C130.140667,10.0821176 130.191255,9.84878431 130.327333,9.64760784 L130.362627,9.59545098 C130.49949,9.39505882 130.697137,9.26211765 130.914392,9.20368627 C130.911255,8.97898039 130.985765,8.75231373 131.141451,8.56643137 L131.183804,8.51623529 C131.340667,8.33113725 131.552431,8.21937255 131.774784,8.18447059 C131.795961,7.95976471 131.894784,7.74172549 132.070078,7.5734902 L132.117922,7.528 C132.295569,7.36054902 132.518706,7.27270588 132.744588,7.2625098 C132.790863,7.04133333 132.914784,6.83466667 133.109294,6.68721569 L133.161451,6.64760784 C133.356745,6.50172549 133.588902,6.43976471 133.814392,6.45584314 C133.885765,6.24094118 134.032431,6.04956863 134.24302,5.9252549 L134.297529,5.8934902 C134.508118,5.76996078 134.746549,5.73466667 134.968902,5.77662745 C135.063804,5.57192157 135.230471,5.39937255 135.452431,5.29976471 L135.512824,5.27270588 C135.735176,5.17466667 135.974,5.16643137 136.190078,5.23231373 C136.306941,5.04015686 136.490471,4.88721569 136.721451,4.81231373 L136.783804,4.79231373 C137.014784,4.71898039 137.252431,4.73623529 137.45949,4.82407843 C137.595176,4.64603922 137.792824,4.5134902 138.029294,4.4625098 L138.094,4.44917647 C138.330078,4.40015686 138.564588,4.44133333 138.760667,4.54917647 C138.913608,4.38564706 139.12302,4.2734902 139.36302,4.24682353 L139.426549,4.23976471 C139.666157,4.21427451 139.895569,4.27780392 140.080667,4.40447059 C140.249686,4.25623529 140.469686,4.1652549 140.712039,4.1625098 L140.774784,4.16208563 C141.312431,4.15780392 141.751647,4.58996078 141.755987,5.12721569 C141.759882,5.66486275 141.32851,6.10368627 140.790471,6.10839216 L140.733608,6.10878431 C140.525765,6.11113725 140.332431,6.048 140.172824,5.93858824 C140.027333,6.06643137 139.842627,6.15231373 139.634784,6.17505882 L139.579882,6.18094118 C139.371647,6.20368627 139.172431,6.16015686 139.002235,6.06643137 C138.870078,6.20839216 138.694,6.31231373 138.489686,6.35466667 L138.437529,6.36564706 C138.233216,6.40956863 138.030863,6.38603922 137.852431,6.30996078 C137.735569,6.46368627 137.571647,6.58407843 137.373216,6.64721569 L137.321843,6.66368627 C137.124588,6.72760784 136.921451,6.7252549 136.737529,6.66878431 C136.637529,6.83309804 136.488118,6.96996078 136.298706,7.0534902 L136.249686,7.07505882 C136.061059,7.15976471 135.859882,7.17976471 135.671255,7.14407843 C135.590863,7.31780392 135.458314,7.46917647 135.280667,7.57309804 L135.232039,7.60172549 C135.055176,7.70603922 134.858706,7.748 134.668118,7.73427451 C134.607725,7.91623529 134.493216,8.08172549 134.328118,8.2052549 L134.28498,8.23819608 C134.121059,8.36211765 133.930078,8.42682353 133.73949,8.43466667 C133.700275,8.6225098 133.60498,8.80015686 133.455569,8.94211765 L133.417137,8.97858824 C133.267725,9.12172549 133.084588,9.20760784 132.894784,9.23780392 C132.876745,9.42917647 132.802235,9.61741176 132.668118,9.77505882 L132.633608,9.81623529 C132.499882,9.97545098 132.326549,10.0813333 132.139882,10.1311373 C132.142627,10.3240784 132.088118,10.5197647 131.970863,10.6915294 L131.93949,10.7381961 C131.82302,10.9099608 131.661843,11.0327059 131.481451,11.1017255 C131.504196,11.2934902 131.470078,11.4942745 131.370863,11.6770196 L131.346157,11.7236863 C131.248118,11.908 131.09949,12.0476078 130.926549,12.1350588 C130.968902,12.3236863 130.955569,12.5268235 130.875569,12.7189804 L130.854392,12.7711373 C130.775176,12.9636863 130.641451,13.1174118 130.478314,13.2213333 C130.53949,13.4056471 130.546549,13.6095686 130.485765,13.8087843 L130.470078,13.8613333 C130.410471,14.0621176 130.291647,14.2295686 130.138314,14.3499608 C130.217529,14.528 130.243412,14.7311373 130.202235,14.9366275 L130.191255,14.9891765 C130.151255,15.1958431 130.047725,15.3742745 129.905765,15.5087843 C130.001059,15.6789804 130.045765,15.8797647 130.023412,16.0887843 L130.017137,16.1452549 C129.994784,16.3538824 129.908118,16.5401569 129.779098,16.6864314 C129.888902,16.8476078 129.951647,17.0436863 129.947725,17.2538824 L129.946549,17.3103529 C129.943412,17.5201569 129.873608,17.7134902 129.757922,17.8707451 C129.881451,18.0209412 129.961451,18.2095686 129.976745,18.4181961 L129.980667,18.4738824 C130.021843,19.0040784 129.629686,19.4676078 129.102627,19.5174118" id="Fill-81" fill="#151C28"></path>
                    <path d="M129.271137,20.7300784 C128.806039,20.774 128.364078,20.4767451 128.240157,20.0100784 C128.236235,19.9955686 128.232314,19.9794902 128.228,19.9622353 C128.101333,19.4398824 128.421725,18.9136078 128.944078,18.7869412 C129.466824,18.6602745 129.992706,18.9810588 130.119373,19.5030196 L130.121725,19.5120392 C130.259373,20.0312549 129.949176,20.5641961 129.429961,20.7018431 C129.377412,20.7155686 129.324078,20.7249804 129.271137,20.7300784" id="Fill-82" fill="#151C28"></path>
                    <path d="M141.49502,9.04635294 C141.161686,9.07811765 140.821294,8.93654902 140.611882,8.64517647 C140.298549,8.20831373 140.398549,7.60007843 140.83502,7.28713725 L140.856196,7.27145098 C141.291882,6.95654902 141.90051,7.05498039 142.21502,7.49066667 C142.529922,7.92635294 142.431882,8.53458824 141.995804,8.8494902 L141.969922,8.86792157 C141.824824,8.97223529 141.660902,9.03066667 141.49502,9.04635294" id="Fill-83" fill="#151C28"></path>
                    <path d="M133.594039,22.4963137 C133.559137,22.499451 133.523843,22.5010196 133.487765,22.5006867 C132.95051,22.4931765 132.521098,22.052 132.527688,21.5143529 L132.528941,21.4488627 C132.534039,21.2084706 132.625412,20.9900392 132.772863,20.8229804 C132.647765,20.6386667 132.584627,20.4104314 132.610118,20.1712157 L132.617176,20.1076863 C132.643843,19.8696471 132.754431,19.6614118 132.916,19.5088627 C132.808549,19.3151373 132.765804,19.0841569 132.811686,18.8496471 L132.824235,18.7857255 C132.870902,18.552 132.997569,18.3551373 133.17051,18.217098 C133.079137,18.0163137 133.055608,17.7833725 133.119137,17.5539608 L133.136,17.4943529 C133.200314,17.2661176 133.340706,17.0798431 133.521882,16.9559216 C133.446196,16.7496471 133.439137,16.517098 133.518745,16.2939608 L133.539137,16.2359216 C133.618353,16.0139608 133.770118,15.8386667 133.958353,15.7272941 C133.896392,15.5182745 133.903843,15.2876863 133.995216,15.0712157 L134.020314,15.0127843 C134.112471,14.7978824 134.272863,14.6327843 134.466196,14.5327843 C134.416392,14.3214118 134.436784,14.092 134.539922,13.8818039 L134.56698,13.8265098 C134.671294,13.6155294 134.842275,13.4586667 135.04149,13.3692549 C135.003059,13.1500392 135.039529,12.917098 135.160706,12.7100392 L135.192078,12.6563137 C135.315216,12.4480784 135.503451,12.3021961 135.715608,12.2296471 C135.697569,12.0061176 135.756784,11.7747451 135.899529,11.5790588 L135.937569,11.526902 C136.08149,11.3316078 136.284235,11.2057255 136.503451,11.1555294 C136.508549,10.9304314 136.591686,10.7061176 136.754431,10.5261176 L136.797176,10.4786667 C136.960706,10.299451 137.175608,10.1955294 137.398745,10.1684706 C137.427373,9.94611765 137.532471,9.73278431 137.712078,9.57082353 L137.760706,9.52690196 C137.939922,9.36690196 138.161882,9.28533333 138.385412,9.28023529 C138.434824,9.06376471 138.558353,8.86258824 138.750118,8.71905882 L138.799922,8.68141176 C138.989333,8.54062745 139.212863,8.47866667 139.431294,8.49003922 C139.495216,8.28337255 139.627765,8.09670588 139.821882,7.96729412 L139.872863,7.93317647 C140.320706,7.63631373 140.924235,7.75827451 141.221882,8.20611765 C141.518745,8.65396078 141.396784,9.25788235 140.948941,9.55513725 L140.900706,9.58729412 C140.719922,9.70768627 140.513255,9.75945098 140.311686,9.7492549 C140.252863,9.93945098 140.135608,10.1139608 139.963059,10.2421961 L139.917569,10.2763137 C139.748941,10.4025882 139.552863,10.4661176 139.356784,10.4704314 C139.313647,10.6606275 139.212863,10.839451 139.056392,10.9790588 L139.016,11.0155294 C138.86149,11.1551373 138.674039,11.2359216 138.48149,11.2590588 C138.456784,11.4504314 138.375216,11.6367059 138.235608,11.7900392 L138.197961,11.8312157 C138.059137,11.9849412 137.882275,12.0841569 137.694039,12.1272941 C137.689333,12.3202353 137.627765,12.5139608 137.50502,12.6810196 L137.472471,12.7253333 C137.349725,12.8935686 137.183451,13.0108235 137.000706,13.0731765 C137.016392,13.2661176 136.974431,13.4653333 136.868941,13.6449412 L136.839529,13.6943529 C136.733255,13.8759216 136.576784,14.0100392 136.398353,14.0900392 C136.432863,14.2865098 136.407765,14.4951373 136.312863,14.6876863 L136.28698,14.739451 C136.191686,14.9335686 136.040314,15.0818039 135.862275,15.1743529 C135.908157,15.3696471 135.894039,15.5810196 135.808941,15.779451 L135.787373,15.8312157 C135.703059,16.0296471 135.561098,16.1853333 135.388549,16.2876863 C135.445804,16.4786667 135.444235,16.6892549 135.371686,16.8916078 L135.352471,16.9457255 C135.281098,17.146902 135.150118,17.3100392 134.986196,17.4221961 C135.054824,17.6080784 135.067373,17.8163137 135.009333,18.0218039 L134.994039,18.0767059 C134.937176,18.2814118 134.818745,18.4523922 134.664627,18.5755294 C134.746196,18.7547451 134.774039,18.9606275 134.732078,19.1688627 L134.721882,19.2218039 C134.681098,19.4296471 134.577961,19.6084706 134.434824,19.7433725 C134.530118,19.9143529 134.574824,20.1155294 134.551294,20.3249412 L134.545412,20.3802353 C134.522667,20.5884706 134.435608,20.7743529 134.306588,20.9202353 C134.416784,21.0814118 134.479137,21.277098 134.474824,21.486902 L134.474039,21.5406275 C134.467373,22.0421961 134.082275,22.4500392 133.594039,22.4963137" id="Fill-84" fill="#151C28"></path>
                    <path d="M133.660275,23.7229412 C133.131647,23.7727451 132.65949,23.3896078 132.601451,22.8601961 L132.598706,22.8362745 C132.537529,22.302549 132.920275,21.8198039 133.454392,21.7582353 C133.989686,21.6958824 134.470471,22.0798039 134.532431,22.6135294 L134.535961,22.6480392 C134.594784,23.1821569 134.208902,23.6629412 133.674784,23.7213725 C133.669686,23.7221569 133.66498,23.722549 133.660275,23.7229412" id="Fill-85" fill="#151C28"></path>
                    <path d="M143.323294,8.65458824 C143.289176,8.65772549 143.254667,8.65929412 143.219765,8.65890196 L143.194275,8.6585098 C142.656627,8.65458824 142.224078,8.21576471 142.228,7.6785098 C142.232314,7.14086275 142.670353,6.70870588 143.208392,6.71223529 L143.240941,6.71262745 C143.778196,6.7185098 144.209569,7.15890196 144.203686,7.69615686 C144.197804,8.1985098 143.812706,8.60831373 143.323294,8.65458824" id="Fill-86" fill="#151C28"></path>
                    <path d="M154.598157,21.146549 C154.553843,21.1509975 154.508745,21.1520392 154.462863,21.1500784 C153.926,21.126549 153.509922,20.6724314 153.533059,20.1355686 L153.535412,20.0783137 C153.544039,19.8716471 153.616588,19.6826275 153.733059,19.5292941 C153.613451,19.3787059 153.537765,19.1908627 153.525608,18.9841961 L153.522078,18.9277255 C153.509137,18.7202745 153.562078,18.5234118 153.663255,18.3583137 C153.528745,18.2194902 153.434235,18.0387059 153.402078,17.8328235 L153.393451,17.779098 C153.360118,17.5736078 153.393843,17.3724314 153.478549,17.1987059 C153.330314,17.0728235 153.218157,16.9018431 153.166392,16.6994902 L153.153059,16.6496863 C153.099725,16.4485098 153.113451,16.2449804 153.180118,16.0638039 C153.020902,15.9536078 152.892275,15.7951765 152.82051,15.599098 L152.802471,15.5508627 C152.728745,15.3563529 152.722078,15.1532157 152.770314,14.9657647 C152.600902,14.8728235 152.457765,14.728902 152.366784,14.5426275 L152.342078,14.4932157 C152.249922,14.3077255 152.222078,14.106549 152.251098,13.9163529 C152.073843,13.8410588 151.91698,13.7124314 151.807176,13.5371373 L151.77698,13.4892941 C151.666,13.3136078 151.618157,13.1163529 151.627961,12.9238039 C151.444039,12.8673333 151.274627,12.7555686 151.147569,12.5920392 L151.112667,12.5473333 C150.986392,12.3857647 150.918941,12.1967451 150.907569,12.0061569 C150.719725,11.9696863 150.540902,11.8779216 150.397765,11.7308627 L150.36051,11.6928235 C150.216196,11.5469412 150.127961,11.3673333 150.094627,11.1798824 C149.904431,11.1653725 149.717373,11.0955686 149.557765,10.9669412 L149.51502,10.9328235 C149.35502,10.8045882 149.246,10.6363529 149.190706,10.4536078 C148.999725,10.461451 148.804431,10.4132157 148.630706,10.3034118 L148.586392,10.2755686 C148.411882,10.166549 148.283255,10.0108627 148.207569,9.83517647 C148.018941,9.86458824 147.819333,9.83909804 147.633843,9.74968627 L147.584431,9.72537255 C147.398157,9.63635294 147.253059,9.49556863 147.157765,9.3285098 C146.972667,9.37870588 146.769922,9.37439216 146.575412,9.30458824 L146.524039,9.28654902 C146.328353,9.21752941 146.168745,9.09203922 146.056588,8.93478431 C145.875804,9.00498039 145.672275,9.02184314 145.470314,8.9712549 L145.419333,8.95870588 C145.217373,8.90968627 145.045608,8.80105882 144.917765,8.65596078 C144.746392,8.74341176 144.547569,8.78105882 144.342471,8.75243137 L144.286392,8.74458824 C143.753843,8.67164706 143.380902,8.18105882 143.453843,7.6485098 C143.526784,7.11596078 144.017765,6.74301961 144.549922,6.81635294 L144.611882,6.82458824 C144.85149,6.85831373 145.058941,6.9767451 145.207569,7.14537255 C145.407176,7.04380392 145.642471,7.01007843 145.877373,7.06694118 L145.942078,7.08301961 C146.175412,7.14145098 146.367961,7.2794902 146.497765,7.46105882 C146.706784,7.38027451 146.944039,7.37086275 147.171882,7.4512549 L147.233059,7.47282353 C147.460902,7.55478431 147.639725,7.71282353 147.750314,7.90811765 C147.967569,7.84929412 148.205216,7.86537255 148.424431,7.96968627 L148.481686,7.99752941 C148.700902,8.10380392 148.862078,8.28066667 148.95149,8.48811765 C149.174235,8.45321569 149.409922,8.49517647 149.615804,8.62380392 L149.672275,8.6594902 C149.878157,8.78929412 150.018157,8.98380392 150.083255,9.19988235 C150.308745,9.19086275 150.538941,9.2594902 150.729529,9.41164706 L150.779725,9.45203922 C150.969922,9.60537255 151.087176,9.81517647 151.126784,10.0383137 C151.352275,10.0555686 151.572667,10.1508627 151.744431,10.3241961 L151.790706,10.3716471 C151.96051,10.5457647 152.052275,10.7673333 152.065608,10.9920392 C152.287176,11.0355686 152.49502,11.1555686 152.645216,11.3473333 L152.682078,11.3951765 C152.831098,11.5861569 152.897373,11.8155686 152.886784,12.0398824 C153.101294,12.1057647 153.293843,12.2457647 153.422863,12.4504706 L153.456196,12.5034118 C153.584431,12.7085098 153.627176,12.9426275 153.593843,13.1645882 C153.80051,13.2520392 153.977373,13.4104706 154.084824,13.6269412 L154.113451,13.6845882 C154.219725,13.901451 154.238157,14.1383137 154.182471,14.3551765 C154.378549,14.4630196 154.538549,14.6383137 154.623255,14.8638039 L154.647176,14.9273333 C154.730314,15.1528235 154.724039,15.3896863 154.647176,15.599098 C154.831098,15.7261569 154.972275,15.9167451 155.033843,16.1492941 L155.051098,16.2143922 C155.111098,16.4473333 155.081294,16.681451 154.984039,16.8818431 C155.154627,17.026549 155.276196,17.2296863 155.314627,17.4673333 L155.325216,17.5316471 C155.362078,17.7692941 155.309529,18.0006667 155.193059,18.1908627 C155.348353,18.3512549 155.449529,18.5657647 155.464431,18.8061569 L155.468353,18.868902 C155.482863,19.1104706 155.407569,19.3367451 155.271882,19.5151765 C155.410706,19.6916471 155.489922,19.9163529 155.480118,20.1579216 L155.477373,20.2202745 C155.456196,20.7112549 155.074235,21.101451 154.598157,21.146549" id="Fill-87" fill="#151C28"></path>
                    <path d="M154.454549,22.3599608 C154.345922,22.3701569 154.233373,22.3623137 154.120824,22.3336863 C153.600431,22.1999608 153.286706,21.6697647 153.420039,21.1489804 C153.540039,20.6250588 154.062392,20.2956471 154.586314,20.4156471 C155.110235,20.5356471 155.438471,21.0556471 155.318471,21.5795686 C155.313765,21.5991765 155.309843,21.6168235 155.305529,21.632902 C155.200431,22.0415294 154.851804,22.3223137 154.454549,22.3599608" id="Fill-88" fill="#151C28"></path>
                    <path d="M142.152157,6.75239216 C141.805882,6.78494118 141.454118,6.63082353 141.248235,6.32101961 C140.951373,5.87317647 141.073725,5.2692549 141.521961,4.97239216 L141.546275,4.95592157 C141.994118,4.65905882 142.598039,4.78141176 142.895294,5.2292549 C143.192157,5.6774902 143.069804,6.28101961 142.621569,6.57827451 L142.597255,6.59435294 C142.459216,6.68611765 142.306275,6.7374902 142.152157,6.75239216" id="Fill-89" fill="#151C28"></path>
                    <path d="M157.992,13.0307451 C157.541412,13.0734902 157.107686,12.795451 156.970824,12.3456471 L156.954353,12.2942745 C156.895922,12.1056471 156.897882,11.9123137 156.949255,11.735451 C156.792784,11.6366275 156.66298,11.4915294 156.582196,11.3099608 L156.56102,11.2617255 C156.478667,11.0801569 156.457098,10.8864314 156.487294,10.7032941 C156.319059,10.6225098 156.172392,10.493098 156.070824,10.3201569 L156.044157,10.2758431 C155.941412,10.1040784 155.89749,9.9134902 155.907294,9.72760784 C155.730431,9.66603922 155.570039,9.5534902 155.449647,9.39309804 L155.418275,9.35192157 C155.296706,9.19231373 155.232,9.00721569 155.22102,8.82094118 C155.038667,8.77937255 154.866118,8.6852549 154.728863,8.53898039 L154.692392,8.50054902 C154.553569,8.35466667 154.469255,8.17741176 154.437882,7.99270588 C154.252,7.97113725 154.070039,7.89505882 153.916706,7.76368627 L153.87749,7.72956863 C153.723373,7.59858824 153.620627,7.43035294 153.570431,7.24917647 C153.382196,7.24682353 153.193176,7.18956863 153.027294,7.07427451 L152.982588,7.04290196 C152.815922,6.92760784 152.696314,6.76996078 152.628471,6.59388235 C152.441412,6.60996078 152.247294,6.57192157 152.070431,6.47270588 L152.02298,6.44603922 C151.847294,6.348 151.713569,6.20407843 151.628863,6.03741176 C151.444941,6.07192157 151.249255,6.0534902 151.064157,5.97388235 L151.015529,5.95309804 C150.831216,5.87427451 150.683765,5.74603922 150.581804,5.58956863 C150.403373,5.64368627 150.207294,5.64682353 150.015922,5.588 L149.96651,5.57309804 C149.775529,5.51584314 149.615137,5.40564706 149.496706,5.2625098 C149.326902,5.33623529 149.134353,5.36211765 148.938667,5.32643137 L148.88651,5.31741176 C148.691216,5.28329412 148.519843,5.19309804 148.386118,5.06643137 C148.226902,5.15976471 148.039059,5.20839216 147.841412,5.19741176 L147.790039,5.19505882 C147.592784,5.1852549 147.412,5.11780392 147.264157,5.00917647 C147.118275,5.12133333 146.940235,5.1934902 146.742588,5.208 L146.691608,5.21192157 C146.495137,5.228 146.307686,5.18407843 146.146902,5.09623529 C146.01749,5.22564706 145.850824,5.32015686 145.658275,5.36054902 L145.605333,5.37152941 C145.412784,5.41309804 145.221804,5.39427451 145.050824,5.328 C144.939843,5.4734902 144.78651,5.58917647 144.60102,5.65427451 L144.550039,5.67231373 C144.363765,5.73858824 144.171216,5.74486275 143.992784,5.70133333 C143.900235,5.86054902 143.762196,5.99584314 143.584941,6.08407843 L143.538667,6.10760784 C143.059059,6.3507451 142.473569,6.15898039 142.230431,5.67976471 C141.987294,5.20054902 142.179059,4.61466667 142.657882,4.37152941 L142.716314,4.3425098 C142.930431,4.23545098 143.165333,4.21505882 143.381412,4.268 C143.492784,4.07505882 143.670431,3.91937255 143.897098,3.83898039 L143.955922,3.81819608 C144.18298,3.73819608 144.420627,3.74760784 144.628863,3.82839216 C144.764941,3.65113725 144.961412,3.51937255 145.197098,3.46878431 L145.258275,3.45545098 C145.494745,3.40643137 145.728863,3.44682353 145.924941,3.55388235 C146.082196,3.39623529 146.295922,3.29192157 146.533961,3.27192157 L146.599451,3.26682353 C146.839451,3.24917647 147.064941,3.31976471 147.244549,3.45113725 C147.42102,3.31545098 147.644549,3.23898039 147.884549,3.25113725 L147.950039,3.25427451 C148.188471,3.26760784 148.402588,3.36603922 148.563765,3.51819608 C148.755137,3.40643137 148.985725,3.35898039 149.221804,3.40015686 L149.284549,3.41152941 C149.519451,3.45388235 149.718667,3.57701961 149.860235,3.74760784 C150.06298,3.65976471 150.296314,3.64054902 150.524549,3.70878431 L150.58651,3.72760784 C150.813176,3.79701961 150.995922,3.94172549 151.116314,4.12564706 C151.326902,4.06211765 151.559843,4.06956863 151.777882,4.1625098 L151.836314,4.18721569 C152.052784,4.28094118 152.218275,4.44407843 152.31749,4.63937255 C152.533569,4.59898039 152.763373,4.6307451 152.970039,4.74603922 L153.023765,4.77584314 C153.228863,4.89113725 153.375922,5.06956863 153.455137,5.27309804 C153.672,5.25466667 153.897098,5.30878431 154.090039,5.4425098 L154.14102,5.47819608 C154.334353,5.61270588 154.463373,5.80486275 154.521412,6.01545098 C154.740235,6.01819608 154.959059,6.09466667 155.138275,6.24721569 L155.187294,6.28917647 C155.366118,6.44290196 155.475137,6.64760784 155.511608,6.86329412 C155.729255,6.88878431 155.939843,6.988 156.10298,7.15937255 L156.14651,7.20564706 C156.308863,7.37780392 156.395922,7.59427451 156.409255,7.81309804 C156.623373,7.86211765 156.822588,7.98329412 156.966118,8.17192157 L157.005333,8.22407843 C157.147686,8.41309804 157.210431,8.63741176 157.199451,8.85701961 C157.407294,8.92956863 157.592,9.07231373 157.713961,9.27623529 L157.747294,9.33192157 C157.868078,9.53623529 157.904941,9.76682353 157.869255,9.98407843 C158.068078,10.0797647 158.236314,10.2432941 158.334353,10.460549 L158.360235,10.5189804 C158.45749,10.7370196 158.468078,10.9719216 158.40651,11.1844706 C158.594353,11.3040784 158.742196,11.488 158.813569,11.7174118 L158.832,11.7778039 C158.988863,12.2919216 158.699451,12.8358431 158.184941,12.9923137 C158.12102,13.0123137 158.056314,13.0248627 157.992,13.0307451" id="Fill-90" fill="#151C28"></path>
                    <path d="M158.239412,14.1430588 C158.226471,14.1442353 158.213529,14.1450196 158.200196,14.1458039 C157.663333,14.1752157 157.204902,13.7638431 157.17549,13.2273725 C157.131176,12.6952157 157.523333,12.2269804 158.053137,12.1767843 C158.056667,12.1763922 158.060588,12.176 158.064118,12.1756078 C158.599412,12.130902 159.07,12.5281569 159.114706,13.0638431 C159.116667,13.0850196 159.117843,13.1042353 159.11902,13.1214902 C159.147255,13.6446275 158.756667,14.0940392 158.239412,14.1430588" id="Fill-91" fill="#151C28"></path>
                    <path d="M131.279412,19.6863137 C131.244118,19.689451 131.208824,19.6910196 131.173137,19.6906867 C130.635098,19.6831765 130.206078,19.2412157 130.213051,18.7039608 L130.214314,18.6435686 C130.218235,18.4106275 130.303725,18.1980784 130.442941,18.0325882 C130.32451,17.8521961 130.265686,17.6314118 130.289608,17.4000392 L130.295882,17.3380784 C130.320588,17.1074902 130.423725,16.9043529 130.576275,16.7529804 C130.474314,16.5627843 130.434706,16.3376863 130.478627,16.109451 L130.49,16.049451 C130.535098,15.8208235 130.656275,15.6263137 130.822549,15.4882745 C130.737843,15.289451 130.718235,15.0612157 130.782941,14.8372941 L130.800588,14.776902 C130.866471,14.5529804 131.006078,14.3706275 131.184902,14.2482745 C131.11902,14.0416078 131.121765,13.8114118 131.208039,13.5941569 L131.231961,13.534549 C131.319804,13.3176863 131.477059,13.1498431 131.667255,13.0455294 C131.622549,12.8321961 131.648431,12.6027843 131.757843,12.394549 L131.787255,12.3380784 C131.897451,12.1306275 132.071961,11.9792549 132.273137,11.8957255 C132.251176,11.6784706 132.301373,11.4521961 132.432353,11.2561176 L132.467647,11.2043529 C132.599412,11.0090588 132.790784,10.876902 133.000588,10.8153333 C133.002549,10.5965098 133.077451,10.376902 133.229608,10.1965098 L133.269608,10.1490588 C133.422941,9.96905882 133.626863,9.85886275 133.842157,9.82082353 C133.868431,9.60396078 133.967255,9.39415686 134.137843,9.23141176 L134.182549,9.18905882 C134.354314,9.0274902 134.567647,8.94043137 134.786471,8.92592157 C134.835098,8.71415686 134.954706,8.51729412 135.140196,8.37454902 L135.189216,8.33690196 C135.373922,8.19533333 135.593529,8.13023529 135.809608,8.13690196 C135.877843,7.93219608 136.013922,7.74866667 136.21,7.62396078 L136.262549,7.59101961 C136.459412,7.46670588 136.683725,7.422 136.897843,7.44788235 C136.98451,7.25023529 137.137059,7.07964706 137.343725,6.97298039 L137.397843,6.94513725 C137.604902,6.8392549 137.831569,6.81454902 138.042549,6.8592549 C138.146471,6.66984314 138.313137,6.51376471 138.528039,6.42592157 L138.586078,6.402 C138.801373,6.31533333 139.029216,6.31101961 139.235098,6.37415686 C139.355098,6.19454902 139.53549,6.05376471 139.757451,5.98513725 L139.817451,5.96709804 C140.041373,5.8992549 140.270392,5.91611765 140.470392,5.99886275 C140.608431,5.82984314 140.803333,5.70552941 141.033922,5.6592549 L141.095098,5.64709804 C141.622941,5.54396078 142.133922,5.88788235 142.237059,6.41533333 C142.340196,6.94239216 141.996667,7.45415686 141.468824,7.55729412 L141.416667,7.56788235 C141.220588,7.60709804 141.026078,7.58435294 140.853922,7.51298039 C140.73549,7.65847059 140.574314,7.77141176 140.381765,7.82984314 L140.330392,7.84552941 C140.136667,7.90513725 139.93902,7.90121569 139.75902,7.84592157 C139.653922,8.00317647 139.502549,8.13101961 139.313922,8.20709804 L139.264118,8.2274902 C139.077059,8.30396078 138.879412,8.31768627 138.694706,8.27886275 C138.60451,8.44435294 138.464902,8.58513725 138.28451,8.67768627 L138.23549,8.70278431 C138.05549,8.79572549 137.860196,8.82670588 137.673137,8.80396078 C137.597843,8.9765098 137.471961,9.12905882 137.300588,9.23690196 L137.254706,9.26592157 C137.084118,9.37494118 136.891961,9.42356863 136.703725,9.41768627 C136.64451,9.59611765 136.532745,9.7592549 136.371961,9.88239216 L136.329216,9.91533333 C136.170392,10.0376863 135.984902,10.1039608 135.79902,10.1161176 C135.757451,10.296902 135.663725,10.4674902 135.51902,10.6043529 L135.479412,10.642 C135.335098,10.7788627 135.159804,10.8631765 134.977451,10.8953333 C134.95549,11.0788627 134.881373,11.2584706 134.752353,11.4098431 L134.717451,11.4510196 C134.589216,11.6031765 134.424902,11.7059216 134.246863,11.7576863 C134.245294,11.9427843 134.191569,12.129451 134.080196,12.2941569 L134.05,12.3388627 C133.939412,12.5043529 133.786471,12.6251373 133.615098,12.6961176 C133.634314,12.8812157 133.600196,13.0737647 133.506471,13.2506275 L133.482157,13.296902 C133.389216,13.4741569 133.249608,13.6110196 133.086078,13.7000392 C133.124902,13.8827843 133.111176,14.0788627 133.035882,14.2651373 L133.016667,14.3133725 C132.942157,14.5004314 132.816275,14.6514118 132.661765,14.756902 C132.71902,14.9357255 132.724902,15.1329804 132.667647,15.3263137 L132.653137,15.3772941 C132.596667,15.5718039 132.485294,15.7349412 132.34098,15.8549412 C132.414706,16.0282745 132.43902,16.2243529 132.400196,16.4227843 L132.39,16.4765098 C132.351569,16.6761176 132.255098,16.849451 132.12098,16.9823922 C132.210784,17.1490588 132.252353,17.3435686 132.231176,17.5459216 L132.225294,17.5996471 C132.20451,17.8016078 132.123333,17.9823922 132.001765,18.1267059 C132.104902,18.2839608 132.163725,18.4729804 132.160196,18.6753333 L132.159412,18.7310196 C132.152745,19.2325882 131.767255,19.6400392 131.279412,19.6863137" id="Fill-92" fill="#151C28"></path>
                    <path d="M142.555059,7.42298039 C142.534275,7.42494118 142.514275,7.42611765 142.493098,7.42690196 L142.470745,7.42768627 C141.933882,7.44847059 141.481725,7.03003922 141.460941,6.49278431 C141.439765,5.95592157 141.859373,5.50415686 142.395451,5.48298039 L142.431922,5.48141176 C142.969176,5.46454902 143.418196,5.8865098 143.435059,6.42337255 C143.451137,6.93984314 143.062118,7.3747451 142.555059,7.42298039" id="Fill-93" fill="#151C28"></path>
                    <path d="M131.33302,21.0402745 C130.804392,21.0900784 130.332235,20.7069412 130.274588,20.1775294 L130.271843,20.1536078 C130.210275,19.6198824 130.59302,19.1371373 131.127137,19.0755686 C131.662431,19.0132157 132.143608,19.3971373 132.205176,19.9308627 L132.208706,19.9653725 C132.267529,20.4994902 131.882039,20.9802745 131.347922,21.0387059 C131.342824,21.0394902 131.338118,21.0398824 131.33302,21.0402745" id="Fill-94" fill="#151C28"></path>
                    <path d="M142.717804,9.41152941 C142.492314,9.43309804 142.257804,9.37584314 142.05898,9.23309804 C141.62251,8.91976471 141.522902,8.31192157 141.836235,7.87545098 L141.855843,7.848 C142.171137,7.41270588 142.779373,7.31545098 143.215059,7.6307451 C143.649961,7.94603922 143.747216,8.55427451 143.431922,8.98956863 L143.41702,9.01035294 C143.246431,9.248 142.988,9.38603922 142.717804,9.41152941" id="Fill-95" fill="#151C28"></path>
                    <path d="M140.290588,22.9123922 C139.771765,22.9614118 139.302745,22.5908235 139.234902,22.0700392 L139.226667,22.0076863 C139.196863,21.7743529 139.252157,21.5496471 139.368235,21.3649412 C139.212941,21.2108235 139.108235,21.0037647 139.08549,20.7688627 L139.079216,20.7057255 C139.056863,20.4696471 139.121176,20.2453333 139.24549,20.0637647 C139.094902,19.9029804 138.998431,19.6904314 138.98549,19.4531765 L138.981961,19.3900392 C138.969804,19.152 139.043922,18.9292549 139.177255,18.7531765 C139.03451,18.5849412 138.947451,18.3672941 138.945882,18.1288627 L138.945489,18.0641569 C138.945098,17.8249412 139.03098,17.6057255 139.173725,17.4363137 C139.038824,17.259451 138.963137,17.0355294 138.975294,16.7959216 L138.978824,16.7339608 C138.991373,16.4939608 139.089804,16.2786667 139.243137,16.1167059 C139.118824,15.932 139.056471,15.7041569 139.082745,15.4653333 L139.089804,15.4010196 C139.117647,15.1610196 139.230196,14.9516078 139.394118,14.799451 C139.281176,14.6057255 139.233725,14.3727843 139.276863,14.1347451 L139.288235,14.0716078 C139.332941,13.8331765 139.460392,13.6312157 139.635294,13.4904314 C139.535686,13.2880784 139.50549,13.0504314 139.567059,12.8151373 L139.583137,12.7539608 C139.645098,12.5182745 139.78902,12.3253333 139.975294,12.1982745 C139.891765,11.9880784 139.880784,11.7476863 139.961569,11.5174902 L139.983137,11.4567059 C140.065098,11.2257255 140.225098,11.0449412 140.422745,10.9339608 C140.357255,10.7159216 140.367451,10.4743529 140.46902,10.2512157 L140.495686,10.1923922 C140.598039,9.9692549 140.77451,9.80298039 140.983137,9.71003922 C140.937647,9.48690196 140.970196,9.2465098 141.092549,9.03356863 L141.126275,8.97552941 C141.396078,8.51082353 141.991765,8.35356863 142.456471,8.62337255 C142.921176,8.89356863 143.078431,9.4892549 142.808627,9.95396078 L142.781176,10.0014118 C142.67451,10.1872941 142.516078,10.324549 142.334118,10.4057255 C142.373725,10.6006275 142.354118,10.8096471 142.264314,11.004549 L142.240784,11.0567059 C142.151765,11.252 142.006275,11.4041569 141.832549,11.5018039 C141.889804,11.6931765 141.889412,11.9041569 141.817647,12.106902 L141.798431,12.1606275 C141.727059,12.3649412 141.59451,12.5300392 141.428235,12.6429804 C141.503137,12.8300392 141.520392,13.0410196 141.465098,13.2504314 L141.450196,13.3065098 C141.395294,13.517098 141.276078,13.6927843 141.118431,13.819451 C141.208235,14.0006275 141.241961,14.2116078 141.201961,14.4257255 L141.192157,14.4818039 C141.152941,14.697098 141.045882,14.8829804 140.897255,15.0210196 C141,15.1967059 141.048627,15.4057255 141.023529,15.6233725 L141.017255,15.679451 C140.992941,15.8982745 140.898039,16.0923922 140.757255,16.2406275 C140.871373,16.4100392 140.934118,16.6163137 140.922353,16.8359216 L140.919608,16.8955294 C140.907843,17.1159216 140.824314,17.3155294 140.692157,17.472 C140.817255,17.6351373 140.891373,17.8390588 140.891765,18.0602353 L140.892157,18.117098 C140.893333,18.339451 140.820392,18.5449412 140.695686,18.7096471 C140.829412,18.866902 140.914118,19.0672941 140.925882,19.2892549 L140.92902,19.3472941 C140.940784,19.5704314 140.877255,19.779451 140.76,19.9504314 C140.901569,20.1018039 140.996078,20.2998431 141.017255,20.5221961 L141.022353,20.5802353 C141.044314,20.8033725 140.988627,21.0167059 140.877647,21.1927843 C141.026275,21.3398431 141.128235,21.5355294 141.157255,21.7590588 L141.164706,21.8174902 C141.234118,22.3500392 140.858824,22.8386667 140.326275,22.9084706 C140.31451,22.9100392 140.302353,22.9112157 140.290588,22.9123922" id="Fill-96" fill="#151C28"></path>
                    <path d="M140.453725,24.1467059 C139.925098,24.1965098 139.452941,23.8133725 139.394902,23.2839608 L139.392157,23.2600392 C139.33098,22.7263137 139.713725,22.2435686 140.247843,22.182 C140.783137,22.1200392 141.263922,22.5035686 141.325882,23.0372941 L141.329412,23.0718039 C141.388235,23.6059216 141.002353,24.0867059 140.468235,24.1451373 C140.463529,24.1459216 140.458824,24.1463137 140.453725,24.1467059" id="Fill-97" fill="#151C28"></path>
                    <path d="M142.283529,5.75152941 C142.16902,5.7625098 142.05098,5.75309804 141.934118,5.72094118 C141.921176,5.71741176 141.903529,5.71231373 141.882353,5.70603922 C141.367843,5.5507451 141.076471,5.008 141.231373,4.4934902 C141.386667,3.97858824 141.929804,3.68760784 142.443922,3.8425098 L142.451765,3.84486275 C142.970196,3.98682353 143.273333,4.52172549 143.131765,5.04015686 C143.021569,5.44133333 142.674902,5.71466667 142.283529,5.75152941" id="Fill-98" fill="#151C28"></path>
                    <path d="M127.067529,14.9043922 C126.991059,14.9118431 126.912235,14.9098824 126.832627,14.8981176 C126.301255,14.8196863 125.933804,14.3251765 126.012627,13.7934118 L126.022039,13.7294902 C126.059294,13.4843922 126.184392,13.2745882 126.361255,13.1275294 C126.257725,12.9232157 126.225176,12.6816471 126.287137,12.4420392 L126.303608,12.3792941 C126.366745,12.1408627 126.513412,11.9463529 126.703608,11.8192941 C126.622039,11.6055686 126.615373,11.3628235 126.701255,11.1318431 L126.724784,11.0702745 C126.812235,10.8400784 126.977725,10.6620392 127.179686,10.5553725 C127.120863,10.3345882 127.138902,10.0922353 127.248706,9.87184314 L127.277725,9.81301961 C127.388706,9.59262745 127.571843,9.43262745 127.784392,9.34713725 C127.748314,9.12086275 127.791843,8.8812549 127.924784,8.67262745 L127.958902,8.61890196 C128.092235,8.41105882 128.291059,8.27105882 128.511059,8.20831373 C128.498902,7.97968627 128.566745,7.74635294 128.720078,7.55301961 L128.760863,7.50164706 C128.91498,7.3094902 129.126745,7.19105882 129.351451,7.15145098 C129.363216,6.92321569 129.454588,6.6985098 129.625961,6.52203922 L129.671843,6.47537255 C129.845569,6.29890196 130.069882,6.20243137 130.299294,6.1867451 C130.335765,5.95694118 130.454196,5.73929412 130.649882,5.58164706 L130.700863,5.54086275 C130.898118,5.38321569 131.137725,5.31498039 131.371059,5.33027451 C131.438118,5.10635294 131.585569,4.90556863 131.801647,4.77537255 L131.859294,4.7412549 C132.076157,4.61262745 132.322431,4.57772549 132.551451,4.62517647 C132.648706,4.41262745 132.822824,4.23458824 133.054588,4.13537255 L133.11498,4.10988235 C133.346745,4.01223529 133.59498,4.01105882 133.814588,4.08831373 C133.93851,3.89223529 134.13302,3.73929412 134.373804,3.67145098 L134.43851,3.65341176 C134.679294,3.58752941 134.923216,3.61772549 135.130667,3.72086275 C135.276549,3.54321569 135.485961,3.41615686 135.731451,3.37772549 L135.798118,3.36752941 C136.042824,3.33105882 136.279686,3.38870588 136.471843,3.51380392 C136.635765,3.35458824 136.856941,3.25301961 137.102824,3.24047059 L137.16949,3.23772549 C137.414588,3.22752941 137.642431,3.30909804 137.819686,3.45145098 C137.997725,3.31066667 138.225961,3.23145098 138.471059,3.24360784 L138.53498,3.2467451 C138.778902,3.25968627 138.997333,3.3612549 139.159686,3.51890196 C139.349098,3.39537255 139.582431,3.33694118 139.824,3.37066667 L139.887529,3.37929412 C140.128706,3.41341176 140.336157,3.53301961 140.484392,3.70321569 C140.682431,3.59694118 140.918118,3.55811765 141.15498,3.61066667 L141.220078,3.62517647 C141.744,3.74478431 142.071843,4.2667451 141.952235,4.79027451 C141.832627,5.31458824 141.311059,5.64203922 140.787137,5.52282353 L140.734196,5.51066667 C140.522824,5.464 140.343216,5.35184314 140.211059,5.20047059 C140.034588,5.29537255 139.827529,5.33654902 139.614196,5.30635294 L139.557725,5.2985098 C139.344784,5.26909804 139.157725,5.17301961 139.014196,5.03419608 C138.847137,5.14282353 138.645569,5.20164706 138.431843,5.19027451 L138.374588,5.18752941 C138.161255,5.17654902 137.967137,5.09811765 137.812627,4.97380392 C137.657333,5.09654902 137.463608,5.17341176 137.250275,5.18203922 L137.19498,5.18478431 C136.983216,5.19458824 136.784,5.13615686 136.618902,5.02870588 C136.478118,5.16556863 136.29498,5.2612549 136.085961,5.29223529 L136.032627,5.30047059 C135.825176,5.33301961 135.622039,5.29733333 135.447529,5.20988235 C135.324392,5.36047059 135.15498,5.47498039 134.95302,5.53027451 L134.901255,5.54478431 C134.700863,5.6012549 134.497725,5.59066667 134.31498,5.52635294 C134.212627,5.68909804 134.060863,5.82321569 133.870275,5.90360784 L133.81851,5.92556863 C133.628706,6.00635294 133.427922,6.02243137 133.240078,5.98360784 C133.160471,6.15772549 133.028706,6.31027451 132.851451,6.41576471 L132.804784,6.44321569 C132.628314,6.5494902 132.431451,6.59341176 132.240078,6.58047059 C132.185569,6.764 132.075765,6.93341176 131.914588,7.06203922 L131.871059,7.09694118 C131.709882,7.22713725 131.519686,7.29733333 131.327137,7.31027451 C131.296549,7.50360784 131.207922,7.6894902 131.060078,7.83968627 L131.020863,7.87968627 C130.872627,8.03184314 130.686745,8.12517647 130.492627,8.15929412 C130.482824,8.35615686 130.41302,8.55223529 130.280078,8.71772549 L130.245569,8.7612549 C130.114196,8.92752941 129.939294,9.03890196 129.749882,9.09301961 C129.760471,9.2894902 129.711451,9.49105882 129.597333,9.6694902 L129.566353,9.71733333 C129.45302,9.89615686 129.291059,10.0251765 129.108314,10.0981176 C129.139294,10.2926275 129.111843,10.4981176 129.016549,10.6875294 L128.991843,10.7373333 C128.897333,10.9271373 128.749098,11.0730196 128.574588,11.1647843 C128.625961,11.3553725 128.619294,11.5628235 128.544392,11.7612549 L128.524392,11.8134118 C128.449882,12.0122353 128.317725,12.1722353 128.153804,12.2820392 C128.224,12.4655686 128.239294,12.6726275 128.185176,12.8777255 L128.170667,12.9322353 C128.117725,13.1369412 128.002824,13.3094902 127.851843,13.4349804 C127.940863,13.6098824 127.977725,13.8130196 127.945961,14.0216471 L127.937725,14.0777255 C127.871059,14.5298824 127.502824,14.8632157 127.067529,14.9043922" id="Fill-99" fill="#151C28"></path>
                    <path d="M126.961451,16.0263137 C126.940275,16.0282745 126.918706,16.029451 126.896745,16.0302353 C126.35949,16.0455294 125.911647,15.6223922 125.896353,15.0851373 L125.895176,15.0459216 C125.885373,14.5086667 126.312824,14.0655294 126.850471,14.0553333 C127.387725,14.0455294 127.831647,14.4729804 127.841451,15.0106275 L127.841843,15.029451 C127.856353,15.5451373 127.467725,15.9784706 126.961451,16.0263137" id="Fill-100" fill="#151C28"></path>
                    <path d="M142.791725,4.95992157 C142.561922,4.9814902 142.32349,4.92227451 142.123098,4.77443137 C141.690157,4.45521569 141.598392,3.84619608 141.917216,3.41364706 L141.957216,3.35992157 C142.108196,3.15835294 142.323098,3.03207843 142.55251,2.98815686 C142.571333,2.75482353 142.673686,2.52815686 142.858,2.356 C142.874863,2.34070588 142.891725,2.32501961 142.908588,2.30972549 C143.094078,2.13952941 143.328588,2.05482353 143.562314,2.05403922 C143.624275,1.82854902 143.76702,1.62462745 143.979961,1.48933333 L144.035647,1.45482353 C144.247804,1.32227451 144.491333,1.2814902 144.719961,1.32188235 C144.819569,1.11364706 144.992902,0.939921569 145.223098,0.843843137 L145.284275,0.818352941 C145.512118,0.725411765 145.755255,0.725019608 145.970549,0.799921569 C146.099961,0.612470588 146.294863,0.468941176 146.53251,0.40854902 L146.594863,0.392862745 C146.829765,0.334823529 147.066235,0.367372549 147.266627,0.468156863 C147.416824,0.302666667 147.624275,0.187372549 147.863882,0.156392157 L147.926627,0.14854902 C148.16349,0.118745098 148.391333,0.177568627 148.577216,0.298352941 C148.742706,0.152078431 148.958392,0.0603137255 149.196431,0.0540392157 L149.258392,0.0524705882 C149.494471,0.0469803922 149.71251,0.125803922 149.884667,0.261882353 C150.060353,0.132078431 150.280745,0.0610980392 150.516039,0.0744313725 L150.578392,0.0779607843 C150.812118,0.0916862745 151.021137,0.187372549 151.180745,0.334431373 C151.364275,0.219921569 151.587804,0.165411765 151.819176,0.195607843 L151.880353,0.20345098 C152.111333,0.233647059 152.312118,0.342666667 152.460353,0.499529412 C152.650941,0.397960784 152.876039,0.358745098 153.104275,0.403058824 L153.164275,0.415215686 C153.392118,0.459921569 153.585059,0.580705882 153.723098,0.746196078 C153.919569,0.656784314 154.146235,0.631294118 154.371333,0.68972549 L154.430157,0.705019608 C154.656824,0.764235294 154.843098,0.898352941 154.971333,1.07364706 C155.176431,0.995607843 155.410157,0.986196078 155.634471,1.06384314 C155.681529,1.07992157 155.705843,1.08894118 155.705843,1.08894118 C156.210157,1.27364706 156.470549,1.83207843 156.286235,2.33678431 C156.101922,2.84109804 155.545451,3.10109804 155.040745,2.91796078 C155.038,2.91678431 155.02349,2.91168627 154.999176,2.90345098 C154.80349,2.83560784 154.643098,2.71207843 154.530157,2.55639216 C154.347412,2.62580392 154.141922,2.64109804 153.938392,2.58815686 L153.883098,2.57364706 C153.678392,2.52070588 153.505451,2.40619608 153.379961,2.25521569 C153.200745,2.33717647 152.995647,2.36541176 152.787412,2.32462745 L152.732118,2.31364706 C152.524667,2.2732549 152.345451,2.16972549 152.211333,2.02698039 C152.038,2.11952941 151.835647,2.16070588 151.626235,2.1332549 L151.570549,2.12580392 C151.361922,2.09913725 151.177608,2.00815686 151.034471,1.87521569 C150.86898,1.97835294 150.670941,2.0332549 150.461529,2.02070588 L150.406235,2.01756863 C150.198392,2.00580392 150.009373,1.92933333 149.858,1.80972549 C149.702706,1.92384314 149.51251,1.9932549 149.304667,1.99835294 L149.248588,1.99952941 C149.04349,2.00501961 148.851725,1.94698039 148.691725,1.84266667 C148.549765,1.96894118 148.369373,2.05482353 148.166627,2.07992157 L148.112118,2.08658824 C147.912118,2.11286275 147.718392,2.07560784 147.550549,1.99090196 C147.425059,2.12972549 147.258784,2.23364706 147.06349,2.28188235 L147.011333,2.29521569 C146.819569,2.34345098 146.62702,2.33168627 146.453686,2.27168627 C146.349765,2.42266667 146.202314,2.54580392 146.020353,2.62031373 L145.972902,2.63992157 C145.794078,2.71443137 145.606235,2.73168627 145.428588,2.70031373 C145.351333,2.86188235 145.22898,3.00423529 145.065843,3.10580392 L145.021529,3.13364706 C144.860353,3.23560784 144.680745,3.28462745 144.503882,3.28501961 C144.457216,3.456 144.363098,3.61639216 144.222314,3.74501961 L144.186627,3.7787451 C144.04702,3.90854902 143.879569,3.98972549 143.705451,4.02305882 C143.691333,4.19992157 143.628588,4.37521569 143.514471,4.52737255 L143.483882,4.56854902 C143.31251,4.80070588 143.058,4.93482353 142.791725,4.95992157" id="Fill-101" fill="#151C28"></path>
                    <path d="M152.555804,18.5892941 C152.112667,18.6312549 151.684824,18.3641961 151.540902,17.9234118 C151.539725,17.9194902 151.535412,17.9069412 151.528745,17.8873333 C151.462078,17.6979216 151.457373,17.5022353 151.504039,17.321451 C151.338157,17.2269412 151.197373,17.0822353 151.108353,16.8967451 L151.084824,16.8477255 C150.993843,16.6606667 150.967961,16.4583137 150.998941,16.2677255 C150.822471,16.1873333 150.668353,16.0543922 150.562471,15.8747843 L150.53502,15.8281176 C150.427961,15.648902 150.386,15.448902 150.400902,15.2555686 C150.218549,15.1904706 150.053843,15.0700784 149.933843,14.8998824 L149.902078,14.8547843 C149.782078,14.6853725 149.723255,14.4912549 149.722078,14.2983137 C149.536196,14.248902 149.362863,14.1438039 149.229529,13.9849804 L149.193843,13.9430196 C149.059725,13.7853725 148.984824,13.5975294 148.966784,13.4057647 C148.777765,13.3732157 148.596588,13.2841961 148.450314,13.1394902 L148.412275,13.1018431 C148.264431,12.9575294 148.172275,12.7779216 148.136196,12.5892941 C147.946,12.5743922 147.758549,12.5034118 147.599333,12.374 L147.557373,12.3402745 C147.397765,12.2116471 147.289137,12.0430196 147.23502,11.8598824 C147.044431,11.8641961 146.851098,11.8124314 146.68051,11.6998824 L146.63502,11.6704706 C146.464431,11.559098 146.339725,11.4034118 146.267176,11.2281176 C146.079725,11.2516471 145.882078,11.2206667 145.701294,11.1277255 L145.652275,11.1026275 C145.471098,11.0100784 145.331098,10.868902 145.240902,10.7026275 C145.056196,10.7461569 144.85698,10.7363529 144.667176,10.6626275 L144.618157,10.6438039 C144.427176,10.5712549 144.272275,10.4453725 144.164431,10.2892941 C143.985608,10.3520392 143.786,10.3630196 143.589137,10.3100784 L143.537765,10.2963529 C143.018157,10.159098 142.707961,9.62694118 142.844824,9.10694118 C142.982078,8.58733333 143.514235,8.27713725 144.034627,8.41439216 L144.097373,8.4312549 C144.327569,8.49360784 144.516196,8.63360784 144.642078,8.81556863 C144.851098,8.74262745 145.085608,8.7394902 145.309137,8.82419608 L145.369922,8.84772549 C145.592667,8.934 145.766,9.09360784 145.872275,9.28811765 C146.088745,9.23752941 146.323255,9.25988235 146.536588,9.36890196 L146.592667,9.39752941 C146.805216,9.50694118 146.96051,9.68419608 147.045608,9.88890196 C147.266,9.86145098 147.496196,9.9085098 147.696588,10.039098 L147.750314,10.074 C147.949529,10.2053725 148.084824,10.3971373 148.147961,10.608902 C148.368745,10.6045882 148.592275,10.6747843 148.777373,10.8238039 L148.827176,10.8641961 C149.012275,11.0147843 149.127569,11.2187059 149.168745,11.4355686 C149.388353,11.4528235 149.602863,11.5441961 149.771882,11.7100784 L149.818157,11.7547843 C149.986784,11.9218431 150.081686,12.1351765 150.102863,12.3543922 C150.318941,12.3920392 150.523647,12.5026275 150.67698,12.6830196 L150.717765,12.7312549 C150.869922,12.9116471 150.945216,13.1316471 150.946392,13.3512549 C151.158549,13.4077255 151.352275,13.5355686 151.488745,13.7281176 L151.525216,13.779098 C151.660902,13.9716471 151.716588,14.1967451 151.699725,14.4143922 C151.905216,14.4881176 152.087176,14.6304706 152.207176,14.8324314 L152.239725,14.8881176 C152.359725,15.0912549 152.39698,15.3202745 152.362078,15.5359608 C152.561686,15.626549 152.73149,15.7841961 152.83502,15.9967451 L152.862471,16.054 C152.966,16.2692941 152.983255,16.5041961 152.927569,16.7187059 C153.124431,16.8304706 153.283647,17.0112549 153.364824,17.2418431 C153.382863,17.2936078 153.391882,17.3210588 153.391882,17.3210588 C153.555804,17.8324314 153.275412,18.3810588 152.764431,18.5461569 C152.695412,18.5685098 152.625608,18.5826275 152.555804,18.5892941" id="Fill-102" fill="#151C28"></path>
                    <path d="M134.072353,29.3378039 L134.072353,29.3378039 C133.696667,29.4209412 133.324902,29.1840784 133.241765,28.8087843 L132.422549,25.1162353 C132.339412,24.7409412 132.576667,24.3691765 132.951961,24.2856471 C133.327255,24.2025098 133.699412,24.4393725 133.782549,24.8146667 L134.601373,28.5072157 C134.684902,28.8825098 134.447647,29.2546667 134.072353,29.3378039" id="Fill-103" fill="#FFFFFF"></path>
                    <path d="M196.255255,133.445098 L218.12898,133.445098 L218.12898,86.2203922 C218.12898,85.0215686 217.153686,84.0458824 215.954078,84.0458824 L198.429765,84.0458824 C197.230549,84.0458824 196.255255,85.0215686 196.255255,86.2203922 L196.255255,133.445098 Z M220.368196,135.684314 L194.015647,135.684314 L194.015647,86.2203922 C194.015647,83.7866667 195.996039,81.8062745 198.429765,81.8062745 L215.954078,81.8062745 C218.388196,81.8062745 220.368196,83.7866667 220.368196,86.2203922 L220.368196,135.684314 Z" id="Fill-110" fill="#FFFFFF"></path>
                    <path d="M221.954549,137.270549 L192.429843,137.270549 L192.429843,122.702706 C192.429843,122.134471 192.890235,121.674078 193.458078,121.674078 L196.81298,121.674078 C197.380824,121.674078 197.841216,122.134471 197.841216,122.702706 L197.841216,131.858784 L216.542784,131.858784 L216.542784,122.702706 C216.542784,122.134471 217.003569,121.674078 217.571412,121.674078 L220.925922,121.674078 C221.494157,121.674078 221.954549,122.134471 221.954549,122.702706 L221.954549,137.270549 Z" id="Fill-111" fill="#1F2834"></path>
                    <path d="M220.568235,90.1110196 L217.929412,90.1110196 C217.215294,90.1110196 216.636471,89.5318039 216.636471,88.8176863 L216.636471,86.2204314 C216.636471,85.8439608 216.33098,85.5388627 215.954118,85.5388627 L198.429804,85.5388627 C198.053333,85.5388627 197.748235,85.8439608 197.748235,86.2204314 L197.748235,88.8176863 C197.748235,89.5318039 197.16902,90.1110196 196.454902,90.1110196 L193.816078,90.1110196 C193.101961,90.1110196 192.522745,89.5318039 192.522745,88.8176863 L192.522745,86.2204314 C192.522745,82.9584706 195.167843,80.3137647 198.429804,80.3137647 L215.954118,80.3137647 C219.216863,80.3137647 221.861176,82.9584706 221.861176,86.2204314 L221.861176,88.8176863 C221.861176,89.5318039 221.282353,90.1110196 220.568235,90.1110196" id="Fill-112" fill="#64CCC9"></path>
                    <path d="M228.810039,122.617137 L185.574353,122.617137 C180.546118,122.617137 176.469647,126.693608 176.469647,131.721843 L176.469647,199.745765 C176.469647,200.96851 176.712392,202.134392 177.150039,203.19949 L184.523765,203.19949 C187.734353,203.19949 190.360235,205.694 190.574353,208.850471 L228.810039,208.850471 C233.838275,208.850471 237.914353,204.774 237.914353,199.745765 L237.914353,131.721843 C237.914353,126.693608 233.838275,122.617137 228.810039,122.617137" id="Fill-114" fill="#64CCC9"></path>
                    <path d="M220.166863,134.042549 C219.661373,134.164902 219.151961,133.854706 219.029608,133.348431 C218.907255,132.842549 219.217843,132.333529 219.723725,132.211176 C220.229608,132.088824 220.73902,132.399804 220.861373,132.905294 C220.983725,133.411176 220.672745,133.920196 220.166863,134.042549 L220.166863,134.042549 Z M219.107647,129.665686 L215.709608,133.141373 L218.782549,145.840196 L226.792745,143.901765 L223.719412,131.203333 L219.107647,129.665686 Z" id="Fill-125" fill="#E2BC5D"></path>
                    <path d="M220.393216,132.855725 C219.543804,131.125529 218.844588,129.325922 218.308902,127.474157 C218.042627,126.554941 217.812824,125.623569 217.630863,124.683961 C217.437529,123.685137 217.303412,122.625922 217.525765,121.620039 C217.679098,120.928667 218.053608,120.195333 218.693216,119.838863 C219.451647,119.416118 220.283804,119.808667 220.744588,120.474157 C221.253608,121.208667 221.26498,122.144353 221.205373,123.002392 C221.138314,123.974157 221.020667,124.944745 220.912039,125.912588 C220.652431,128.235333 220.340275,130.551412 219.97949,132.860431 C219.927725,133.192196 220.435569,133.335725 220.488118,133.000431 C220.839098,130.756902 221.144588,128.506706 221.401451,126.25102 C221.528902,125.131412 221.674784,124.005922 221.741451,122.880431 C221.796353,121.952588 221.727725,120.948275 221.170863,120.167098 C220.722627,119.537294 220.006941,119.059647 219.206549,119.138078 C218.425373,119.213765 217.807333,119.763176 217.426941,120.421216 C216.409686,122.181216 217.000667,124.483176 217.454392,126.325529 C218.032824,128.673373 218.872431,130.951804 219.937529,133.122 C220.087333,133.426706 220.542235,133.159647 220.393216,132.855725" id="Fill-126" fill="#FFFFFF"></path>
                </g>
            </g>
        </g>
    </g>
</svg>