<?xml version="1.0" encoding="UTF-8"?>
<svg width="184px" height="136px" viewBox="0 0 184 136" version="1.1" xmlns="http://www.w3.org/2000/svg" xmlns:xlink="http://www.w3.org/1999/xlink">
    <title>Graphic/Options/Job-Seeking</title>
    <defs>
        <rect id="path-1" x="0" y="0" width="184" height="136"></rect>
    </defs>
    <g id="Graphic/Options/Job-Seeking" stroke="none" stroke-width="1" fill="none" fill-rule="evenodd">
        <mask id="mask-2" fill="white">
            <use xlink:href="#path-1"></use>
        </mask>
        <g id="Rectangle"></g>
        <g id="Group-97" mask="url(#mask-2)">
            <g transform="translate(-6.000000, 10.000000)">
                <path d="M169.870079,183.127559 C169.870079,189.583465 164.637008,194.816535 158.181102,194.816535 L38.6889764,194.816535 C32.2338583,194.816535 27,189.583465 27,183.127559 L27,78.6889764 C27,72.2338583 32.2338583,67 38.6889764,67 L158.181102,67 C164.637008,67 169.870079,72.2338583 169.870079,78.6889764 L169.870079,183.127559 Z" id="Fill-1" fill="#64CCC9"></path>
                <path d="M105.306142,77.6777953 C127.987244,64.336063 111.005354,9.46047244 111.005354,9.46047244 C111.005354,9.46047244 87.820315,3.47149606 85.247874,9.57543307 C75.6092913,32.4226772 57.0707087,66.3746457 63.1848819,78.9455118 C66.8604724,86.5022047 98.8746457,81.4612598 105.306142,77.6777953" id="Fill-15" fill="#482601"></path>
                <path d="M91.9087402,46.307874 C84.9677953,46.7385827 76.2977165,51.6661417 71.3937795,57.2653543 C69.9599213,67.1456693 70.0544094,129.774803 69.1386614,134.762992 C64.8551969,158.076378 72.5268504,157.048031 72.5268504,157.048031 L125.82685,157.443307 C125.82685,157.443307 132.603228,158.528346 128.904803,134.340157 C128.168583,129.526772 131.02685,71.1834646 124.433937,58.388189 C121.005591,51.7377953 108.085118,47.2393701 104.400079,46.307874 C99.9488976,44.4354331 97.8071654,45.9401575 91.9087402,46.307874" id="Fill-17" fill="#FCF7F1"></path>
                <path d="M84.9562992,21.1733071 C84.9562992,21.1733071 83.3948819,12.5166142 86.165748,7.16464567 C89.6507874,0.434724409 100.064961,-3.27629921 108.085433,3.88590551 C113.666535,8.87173228 110.733465,22.0315748 110.733465,22.0315748 L93.2468504,14.5977165 L84.9562992,21.1733071 Z" id="Fill-19" fill="#482601"></path>
                <path d="M104.400315,46.307874 C104.400315,46.307874 97.0633071,50.184252 91.9089764,46.307874 L93.0074016,32.8543307 L103.30189,32.8543307 L104.400315,46.307874 Z" id="Fill-21" fill="#FFAE94"></path>
                <path d="M87.1485827,19.6522835 C87.1485827,19.6522835 85.6698425,18.6955906 84.5265354,20.2215748 C83.3832283,21.7451969 84.1446457,27.4633071 87.0037008,27.4633071 C89.8627559,27.4633071 87.1485827,19.6522835 87.1485827,19.6522835" id="Fill-23" fill="#FFAE94"></path>
                <path d="M109.247717,19.6522835 C109.247717,19.6522835 110.727244,18.6955906 111.871339,20.2215748 C113.015433,21.7451969 112.252441,27.4633071 109.394173,27.4633071 C106.535906,27.4633071 109.247717,19.6522835 109.247717,19.6522835" id="Fill-25" fill="#FFAE94"></path>
                <path d="M109.727559,18.063622 C109.727559,11.6502362 104.548031,7.45023622 98.1559055,7.45023622 C91.7629921,7.45023622 86.580315,11.6502362 86.580315,18.063622 C86.580315,18.063622 86.0771654,26.2486614 86.0771654,26.643937 C86.0771654,32.7384252 93.5377953,40.4707087 98.1559055,40.4707087 C103.484252,40.4707087 110.233858,31.2628346 110.233858,26.643937 C110.233858,26.2486614 109.727559,18.063622 109.727559,18.063622" id="Fill-27" fill="#FFAE94"></path>
                <path d="M45.9772441,105.161496 C48.5544094,110.310315 52.6559843,113.477244 55.1402362,112.233937 C57.6244882,110.991417 57.5473228,105.80874 54.9717323,100.659134 C52.3937795,95.510315 48.2906299,92.3433858 45.806378,93.5866929 C43.3237008,94.83 43.3992913,100.01189 45.9772441,105.161496" id="Fill-29" fill="#D87E7C"></path>
                <path d="M151.630551,105.161496 C149.054173,110.310315 144.951024,113.477244 142.467559,112.233937 C139.984094,110.991417 140.059685,105.80874 142.63685,100.659134 C145.214803,95.510315 149.317165,92.3433858 151.801417,93.5866929 C154.283307,94.83 154.207717,100.01189 151.630551,105.161496" id="Fill-31" fill="#D87E7C"></path>
                <polygon id="Fill-33" fill="#FFFFFF" points="98.2702362 143.633465 49.2324409 136.299606 46.5970079 102.800394 41.1615748 54.0287402 98.0655118 60.0019685"></polygon>
                <polygon id="Fill-35" fill="#D1D2D3" points="92.9056693 69.3731496 47.556063 64.4038583 47.1182677 60.1637008 92.8513386 65.0833858"></polygon>
                <polygon id="Fill-37" fill="#D1D2D3" points="78.4371654 99.3237008 50.9143307 95.8811811 49.2324409 79.2827559 77.7033071 82.6000787"></polygon>
                <polygon id="Fill-39" fill="#E5E5E5" points="53.6455906 132.532205 66.266063 133.402283 63.7904724 99.8440157 51.1534646 98.2526772"></polygon>
                <polygon id="Fill-41" fill="#E5E5E5" points="61.515748 69.5438583 48.0858268 68.0580315 48.9913386 76.9107874 62.1866142 78.4281102"></polygon>
                <polygon id="Fill-43" fill="#E5E5E5" points="68.3120472 133.700236 79.9994488 135.40811 78.5419685 101.713622 65.9876378 100.121496"></polygon>
                <polygon id="Fill-45" fill="#E5E5E5" points="77.2030709 71.2893701 63.850315 69.8035433 64.4810236 78.6917323 77.5983465 80.2106299"></polygon>
                <polygon id="Fill-47" fill="#D1D2D3" points="82.0304724 135.706378 93.629685 137.414252 93.413937 120.498504 81.3800787 118.848898"></polygon>
                <polygon id="Fill-49" fill="#E5E5E5" points="92.7992126 73.0356693 79.5251969 71.5490551 81.2874016 116.457717 93.3834646 118.098661"></polygon>
                <polygon id="Fill-51" fill="#F9F9F9" points="149.156063 134.908976 98.2702362 143.633386 98.0655118 60.0018898 155.210394 51.0412598 150.422992 104.131024"></polygon>
                <polygon id="Fill-53" fill="#D1D2D3" points="147.577402 77.0672441 134.259291 79.1845669 133.263228 96.0790551 146.203386 93.9924409"></polygon>
                <polygon id="Fill-55" fill="#E5E5E5" points="118.73811 81.6701575 118.187717 98.5307874 131.01685 96.4441732 131.946772 79.553622"></polygon>
                <polygon id="Fill-57" fill="#E5E5E5" points="144.585433 130.479843 131.116929 132.531811 133.121654 98.4940157 146.006693 96.4105512"></polygon>
                <polygon id="Fill-59" fill="#E5E5E5" points="135.401181 59.7929134 149.156299 57.6440945 147.775197 74.6511811 134.401181 76.7708661"></polygon>
                <polygon id="Fill-61" fill="#E5E5E5" points="119.370945 62.3173228 133.012677 60.1677165 132.078819 77.1401575 118.816614 79.2598425"></polygon>
                <polygon id="Fill-63" fill="#E5E5E5" points="114.911024 135.262677 103.00315 137.287087 103.113386 120.33748 115.399213 118.283937"></polygon>
                <polygon id="Fill-65" fill="#E5E5E5" points="103.472913 64.8410236 117.002047 62.6922047 115.469764 115.874882 103.128819 117.932362"></polygon>
                <polygon id="Fill-67" fill="#E5E5E5" points="116.997165 134.908976 129.011339 132.885354 130.592441 104.165669 117.934961 106.238898"></polygon>
                <polygon id="Fill-69" fill="#D1D2D3" points="130.883622 98.8561417 118.107244 100.939606 118.012756 103.830157 130.724567 101.752205"></polygon>
                <path d="M154.821654,91.6411024 C154.318504,90.4938583 150.597244,91.0080315 148.670472,91.3891339 C146.744488,91.767874 145.867323,93.2568504 148.860236,93.683622 C151.851575,94.1111811 155.957874,94.2387402 154.821654,91.6411024" id="Fill-71" fill="#E2857E"></path>
                <path d="M154.786299,98.8122835 C154.28315,97.6634646 150.239055,98.2044094 148.311496,98.5855118 C146.386299,98.964252 145.509134,100.454803 148.502047,100.880787 C151.494173,101.307559 155.92252,101.409134 154.786299,98.8122835" id="Fill-73" fill="#E2857E"></path>
                <path d="M153.874331,102.21874 C153.445197,101.239213 150.271181,101.677795 148.630236,102.001417 C146.987717,102.325827 146.240472,103.595906 148.791654,103.958898 C151.34126,104.323465 154.842835,104.432913 153.874331,102.21874" id="Fill-75" fill="#E2857E"></path>
                <path d="M155.123071,95.2782677 C154.619921,94.1294488 149.651417,94.4404724 147.724646,94.82 C145.798661,95.1995276 144.922283,96.6892913 147.914409,97.1168504 C150.906535,97.5428346 156.257717,97.8759055 155.123071,95.2782677" id="Fill-77" fill="#E2857E"></path>
                <path d="M43.041811,91.6411024 C43.5441732,90.4938583 47.2677953,91.0080315 49.1937795,91.3891339 C51.1197638,91.767874 51.9969291,93.2568504 49.0040157,93.683622 C46.0118898,94.1111811 41.906378,94.2387402 43.041811,91.6411024" id="Fill-79" fill="#E2857E"></path>
                <path d="M43.0775591,98.8122835 C43.5799213,97.6634646 47.6255906,98.2044094 49.5523622,98.5855118 C51.4783465,98.964252 52.3555118,100.454803 49.361811,100.880787 C46.3704724,101.307559 41.942126,101.409134 43.0775591,98.8122835" id="Fill-81" fill="#E2857E"></path>
                <path d="M43.9907087,102.21874 C44.4182677,101.239213 47.5930709,101.677795 49.2348031,102.001417 C50.8765354,102.325827 51.6237795,103.595906 49.0733858,103.958898 C46.5229921,104.323465 43.0214173,104.432913 43.9907087,102.21874" id="Fill-83" fill="#E2857E"></path>
                <path d="M42.7418898,95.2782677 C43.244252,94.1294488 48.2135433,94.4404724 50.1395276,94.82 C52.0647244,95.1995276 52.9418898,96.6892913 49.9489764,97.1168504 C46.9576378,97.5428346 41.6056693,97.8759055 42.7418898,95.2782677" id="Fill-85" fill="#E2857E"></path>
            </g>
        </g>
    </g>
</svg>