<?xml version="1.0" encoding="UTF-8"?>
<svg width="184px" height="136px" viewBox="0 0 184 136" version="1.1" xmlns="http://www.w3.org/2000/svg" xmlns:xlink="http://www.w3.org/1999/xlink">
    <title>Graphic/Options/Job-Assignment</title>
    <defs>
        <rect id="path-1" x="0" y="0" width="184" height="136"></rect>
    </defs>
    <g id="Graphic/Options/Job-Assignment" stroke="none" stroke-width="1" fill="none" fill-rule="evenodd">
        <mask id="mask-2" fill="white">
            <use xlink:href="#path-1"></use>
        </mask>
        <g id="Rectangle"></g>
        <g id="Group-48" mask="url(#mask-2)">
            <g transform="translate(-87.000000, 9.000000)">
                <path d="M174.679434,1.59790361 C181.254614,-0.064686747 190.72347,4.59103614 192.212205,12.2853133 C193.70094,19.9788072 195.100398,33.4071807 190.226181,35.1136265 C188.067867,35.8716988 179.804253,35.1136265 179.804253,35.1136265 L181.542024,44.2958554 L166.403289,44.2958554 L168.886602,31.1439277 C168.886602,31.1439277 153.003892,7.07278313 174.679434,1.59790361" id="Fill-4" fill="#FFAE94"></path>
                <path d="M181.038548,11.2872892 C179.220114,16.6055422 181.061259,24.4071084 177.458066,17.6596386 C175.693669,14.3579518 173.029452,15.2272289 171.630777,17.898494 C169.907886,21.1860843 173.799271,23.9920482 173.431199,25.1001807 C173.059994,26.2043976 169.747343,31.0206627 168.885898,31.1436145 C168.025235,31.2673494 159.567404,17.4536747 163.274753,8.20644578 C167.33138,-1.91319277 184.534452,-2.55849398 188.367886,5.63385542 C186.907343,5.61036145 182.838187,6.02620482 181.038548,11.2872892" id="Fill-6" fill="#101820"></path>
                <path d="M162.950771,214.368669 C164.263301,212.455476 166.246193,208.743428 166.411434,207.936801 C170.697518,193.866259 187.809747,151.068066 187.809747,151.068066 C187.809747,151.068066 162.325831,109.502524 152.957217,122.757825 C152.957217,122.757825 147.194145,181.290717 142.83053,200.226861 C137.483301,200.520536 131.175169,201.288006 123.777699,203.068849 C113.193663,205.618729 95.3961928,209.470175 86.871012,212.173548 L87.6541446,228.914572 C106.374145,227.985777 156.369325,223.968307 162.950771,214.368669" id="Fill-8" fill="#EBECED"></path>
                <path d="M161.475506,55.3828193 C170.103277,52.1030602 179.382614,66.0099277 187.79894,106.709325 L222.637373,90.1867952 L231.47894,99.7770361 C231.47894,99.7770361 191.471831,133.63812 179.236952,123.338361 C167.002855,113.039386 145.566952,61.438 161.475506,55.3828193" id="Fill-20" fill="#E89CAE"></path>
                <polygon id="Fill-22" fill="#FFAE94" points="222.637139 90.1871084 229.933584 85.876747 233.36762 90.314759 228.133163 95.8765663"></polygon>
                <path d="M238.014494,82.9002952 C232.359494,83.1148735 227.882325,86.1369819 228.016241,89.6516807 C228.053831,90.6736687 228.479072,91.6259578 229.20347,92.4552952 C229.930217,93.2846325 234.417566,92.6189699 236.317446,92.1733675 C237.308108,91.939994 238.404494,91.8178253 239.559614,91.8311386 C242.034313,91.8601145 244.702446,89.629753 244.63588,87.8692711 C244.502747,84.3522229 243.667928,82.6849337 238.014494,82.9002952" id="Fill-24" fill="#FFAE94"></path>
                <path d="M171.767904,40.4210723 C165.045494,40.8384819 158.843867,47.8498675 154.512361,60.546012 C151.188747,83.437759 144.807,163.746434 144.807,163.746434 L205.730012,163.746434 C205.730012,163.746434 197.428807,54.5292048 185.410855,45.2459518 C180.641578,41.3357711 177.483988,40.0663133 171.767904,40.4210723" id="Fill-26" fill="#E89CAE"></path>
                <path d="M146.765066,127.023392 C146.191813,126.608331 146.06338,125.806404 146.480006,125.230018 L175.390127,85.3388133 C175.805187,84.7647771 176.608681,84.6371265 177.1835,85.0529699 L202.54838,103.437006 C203.123982,103.852849 203.250849,104.65556 202.835006,105.228813 C202.835006,105.228813 188.639946,124.814958 184.411813,130.651645 C183.830729,131.451223 184.69844,137.689657 184.119705,138.488452 C181.701392,141.826163 177.45838,147.681645 177.45838,147.681645 C177.041753,148.256464 176.239825,148.383331 175.664223,147.968271 L146.765066,127.023392 Z" id="Fill-28" fill="#879AAD"></path>
                <path d="M182.809759,103.155078 C182.238072,102.738452 181.435361,102.866102 181.017952,103.441705 L160.362831,131.940681 C159.947771,132.514717 160.076205,133.317428 160.651024,133.732488 L175.76,144.683813 C176.334819,145.098873 177.136747,144.971223 177.553373,144.39797 L198.207711,115.897428 C198.621988,115.323392 198.49512,114.520681 197.920301,114.104054 L182.809759,103.155078 Z" id="Fill-30" fill="#FFFFFF"></path>
                <path d="M177.183343,85.0531265 C176.609307,84.6372831 175.80503,84.7649337 175.38997,85.3389699 L146.479849,125.230175 C146.063223,125.80656 146.191657,126.608488 146.76491,127.023548 L172.131355,145.406801 C172.706175,145.823428 173.508886,145.69656 173.924729,145.120958 C173.924729,145.120958 188.119006,125.53403 192.347922,119.699693 C192.92744,118.899331 199.1275,117.782584 199.706235,116.983006 C202.124548,113.645295 206.369127,107.790596 206.369127,107.790596 C206.784187,107.21656 206.656536,106.413849 206.081717,105.998006 L177.183343,85.0531265 Z" id="Fill-32" fill="#101820"></path>
                <path d="M173.035952,140.04297 C173.627217,140.441584 174.430711,140.288873 174.830892,139.697608 L206.387217,93.0276084 C206.787398,92.4363434 206.631554,91.6344157 206.041855,91.2350181 L175.676675,70.7012831 C175.086193,70.3018855 174.282699,70.4569458 173.882518,71.0474277 L142.323843,117.715861 C141.925229,118.30791 142.079506,119.109837 142.671554,119.509235 L173.035952,140.04297 Z" id="Fill-34" fill="#64CCC9"></path>
                <path d="M178.275422,46.9336024 C184.67753,53.5808313 173.625964,76.3339639 139.493916,100.046434 L168.360964,125.607096 L163.009036,137.50288 C163.009036,137.50288 116.165181,113.991675 120.837349,98.6963133 C125.510301,83.4025181 166.463434,34.676012 178.275422,46.9336024" id="Fill-38" fill="#E89CAE"></path>
                <polygon id="Fill-40" fill="#FFAE94" points="168.360807 125.607018 175.18894 130.627681 172.455024 135.526958 165.283096 132.894849"></polygon>
            </g>
        </g>
    </g>
</svg>