<?xml version="1.0" encoding="UTF-8"?>
<svg width="184px" height="136px" viewBox="0 0 184 136" version="1.1" xmlns="http://www.w3.org/2000/svg" xmlns:xlink="http://www.w3.org/1999/xlink">
    <title>Graphic/Options/Retirement</title>
    <g id="Graphic/Options/Retirement" stroke="none" stroke-width="1" fill="none" fill-rule="evenodd">
        <g id="Group-38" transform="translate(12.000000, 23.000000)">
            <path d="M112.291483,115.475332 C112.349652,115.475332 112.407605,115.473609 112.465774,115.471023 C114.681573,115.372998 116.122219,113.391167 116.182111,113.307145 L114.769041,112.29307 C114.758916,112.306858 113.745702,113.679425 112.379813,113.734147 C111.52107,113.762801 110.638197,113.264057 109.756618,112.235763 L108.436187,113.367253 C109.63554,114.76675 110.931627,115.475332 112.291483,115.475332" id="Fill-1" fill="#FFFFFF"></path>
            <path d="M71.9875189,90.0829013 C80.0867648,90.0829013 88.029386,89.8232962 95.5962801,89.3120575 L95.4267289,87.3136373 C87.9169264,87.8216445 80.0307504,88.0786643 71.9875189,88.0786643 C53.1957774,88.0786643 35.5411275,86.1789156 22.2752029,83.6386643 C7.75520287,80.8581975 4.52338959,77.410298 4.52338959,75.304158 C4.52338959,72.5161508 10.8502118,68.4960431 29.2761364,65.7950736 L28.9126894,63.3175153 C15.7674111,65.243763 0.0976086176,68.8872819 0.0976086176,75.304158 C0.0976086176,79.7090413 7.40015799,83.3398492 21.8038205,86.0989874 C35.220553,88.6683232 53.0425996,90.0829013 71.9875189,90.0829013" id="Fill-20" fill="#E89CAE"></path>
            <path d="M71.6992819,94.5911311 C94.9717415,94.5911311 116.863016,92.8107361 133.341149,89.5782765 C155.1986,85.2910233 158.283483,79.9950808 158.283483,76.3061041 C158.283483,72.3448115 154.566715,66.7101975 129.701508,62.3580969 L129.270628,64.8255296 C149.922908,68.4399641 153.273645,73.1262118 153.273645,76.3061041 C153.273645,79.2184201 148.861652,83.5886176 130.855189,87.1205386 C114.531095,90.3224057 94.8153321,92.0862118 71.6992819,92.0862118 C48.5832316,92.0862118 26.3623339,90.3224057 10.0375943,87.1205386 L10.0569838,88.5764811 C26.5346858,91.8085099 48.4268223,94.5911311 71.6992819,94.5911311" id="Fill-22" fill="#E89CAE"></path>
            <path d="M75.2429803,2.13210054 C83.1326032,0.137989228 94.4929623,5.72391382 96.2802513,14.9546499 C98.0664632,24.1860323 99.745386,40.297702 93.8983483,42.346535 C91.3068223,43.2541831 81.3944345,42.346535 81.3944345,42.346535 L83.4785996,53.3643447 L65.314219,53.3643447 L68.2933214,37.5825135 C68.2933214,37.5825135 49.2374506,8.70129264 75.2429803,2.13210054" id="Fill-24" fill="#FFAE94"></path>
            <g id="Group-28" transform="translate(60.427289, 0.116768)" fill="#482601">
                <path d="M22.44614,13.6406607 C20.263088,20.0217738 22.4735009,29.3824201 18.1483303,21.2861903 C16.0346499,17.3266212 12.8375224,18.3680575 11.1581688,21.574018 C9.0918851,25.5167828 13.759605,28.8838923 13.3181688,30.2131562 C12.8737163,31.5406966 8.89863555,37.3179318 7.86603232,37.4657235 C6.8329982,37.6132998 -3.31443447,21.0397271 1.13267504,9.94543627 C5.9994614,-2.19718492 26.6409695,-2.9716912 31.240395,6.85926032 C29.4875763,6.8299605 24.6050628,7.32805745 22.44614,13.6406607" id="Fill-26"></path>
            </g>
            <path d="M100.398535,27.4812065 C98.8551239,27.4812065 97.8485889,24.5445458 97.6525386,21.6432172 C97.4857882,19.165228 97.9071885,16.967526 98.7262908,16.0447971 C99.0718564,15.6554973 99.4273321,15.5591957 99.6651777,15.5469156 L99.7239928,15.5458384 C101.266111,15.5458384 102.272646,18.4822837 102.469127,21.3831813 C102.637171,23.8620323 102.215986,26.0597343 101.396237,26.9822478 C101.050671,27.3713321 100.694765,27.4674183 100.45735,27.4799138 L100.398535,27.4812065 Z" id="Fill-29" fill="#101820"></path>
            <path d="M94.2597702,29.2371275 C92.3251203,29.2371275 91.0210628,25.7047756 90.7765386,22.3809695 C90.5677774,19.5533214 91.079447,16.9977738 92.0784417,15.8705925 C92.4403806,15.4621185 92.8712603,15.2348294 93.325623,15.2137163 L93.3967181,15.2115619 C95.3302908,15.2115619 96.6341329,18.7441293 96.8795189,22.0675045 C97.0878492,24.8960144 96.5770413,27.4513465 95.5780467,28.5780969 C95.2161077,28.9867864 94.7850126,29.2140754 94.3308654,29.2354039 L94.2597702,29.2371275 Z" id="Fill-31" fill="#101820"></path>
            <polygon id="Fill-33" fill="#101820" points="91.2255153 22.8361939 78.7502549 21.7266786 78.0951023 20.6165171 91.3112603 21.8533573"></polygon>
            <polygon id="Fill-35" fill="#2A3756" points="96.3876481 22.597702 98.0202513 22.597702 98.0202513 21.6105566 96.3876481 21.6105566"></polygon>
            <path d="M106.660187,59.8140108 C98.1645314,53.9781759 84.4302406,55.9298456 80.6083375,51.5262549 C76.7821257,47.122018 66.801228,51.0596122 64.4798636,53.1476553 C62.1617307,55.2346212 40.8937235,60.0572424 35.314693,72.2181759 C34.660833,73.6433106 34.0489838,75.1156266 33.4776373,76.6049623 C47.3823411,79.3722873 62.9965601,80.9253932 79.496237,80.9253932 C94.2948007,80.9253932 108.380259,79.6756266 121.160366,77.4212639 C116.03893,69.7634542 110.483813,62.4421616 106.660187,59.8140108" id="Fill-37" fill="#FFAE94"></path>
        </g>
    </g>
</svg>