<?xml version="1.0" encoding="UTF-8"?>
<svg width="184px" height="136px" viewBox="0 0 184 136" version="1.1" xmlns="http://www.w3.org/2000/svg" xmlns:xlink="http://www.w3.org/1999/xlink">
    <title>Graphic/Options/Study</title>
    <defs>
        <rect id="path-1" x="0" y="0" width="184" height="136"></rect>
    </defs>
    <g id="Graphic/Options/Study" stroke="none" stroke-width="1" fill="none" fill-rule="evenodd">
        <mask id="mask-2" fill="white">
            <use xlink:href="#path-1"></use>
        </mask>
        <g id="Rectangle"></g>
        <g id="Group-59" mask="url(#mask-2)">
            <g transform="translate(-26.000000, -11.736484)">
                <g id="Group-7" stroke-width="1" fill="none"></g>
                <path d="M121.82354,28.9288887 C127.519282,29.6127435 134.28704,33.4171306 132.42075,42.6872758 C131.112653,49.1837274 128.288153,60.2375177 123.922863,60.1067758 C121.988831,60.0488565 115.696621,56.9432274 115.696621,56.9432274 L114.280815,64.7183081 L102.329782,60.1230339 L108.281927,50.4941952 C108.281927,50.4941952 103.050895,26.6713887 121.82354,28.9288887" id="Fill-12" fill="#FFAE94"></path>
                <path d="M131.425181,33.9347806 L119.140858,42.4502806 C118.751681,39.3094258 116.384777,39.187829 114.469035,40.8712161 C112.111955,42.9434419 114.330503,46.3393452 113.704568,47.1014419 C113.0766,47.8621839 108.999213,50.6582323 108.281826,50.4942968 C107.564439,50.3303613 96.8510516,39.4330548 108.537213,26.8679419 C113.92439,21.0766839 126.666987,23.2159742 131.425181,33.9347806" id="Fill-14" fill="#D97403"></path>
                <path d="M128.421173,21.1735446 C127.943081,24.6730653 125.497397,26.5533377 122.371909,26.1102835 C119.24694,25.6674935 118.134935,23.1782526 118.612768,19.6792604 C119.0906,16.1778903 121.097861,13.7837596 124.222312,14.227078 C127.347281,14.669868 128.899524,17.6729672 128.421173,21.1735446" id="Fill-16" fill="#D97403"></path>
                <path d="M151.293416,169.094845 C153.8019,173.770732 154.774335,170.726748 161.598997,187.831587 C165.335981,197.199958 173.28719,208.254765 177.66569,214.421652 L186.012513,211.302474 C180.429561,196.467329 167.47019,161.166329 164.072932,155.484813 C159.378755,147.635216 118.533077,153.113168 118.533077,153.113168 C118.533077,153.113168 103.299271,143.230635 92.8209484,150.228377 C89.8870452,152.18849 148.784932,164.419635 151.293416,169.094845" id="Fill-18" fill="#1D273F"></path>
                <path d="M85.2615919,161.900584 C86.4582532,181.695116 139.339302,167.825294 141.066044,172.841923 C142.793802,177.85889 141.706882,180.230535 144.656705,195.794584 C146.372269,204.843213 151.410576,217.805632 154.743479,224.595068 L162.987673,222.957068 C159.855285,207.418761 155.997721,170.193552 154.649995,163.889826 C152.738995,154.945181 112.492156,151.485939 112.492156,151.485939 C112.492156,151.485939 99.2868823,139.075277 87.8225758,144.302923 C84.6119468,145.766826 85.0803823,158.902326 85.2615919,161.900584" id="Fill-27" fill="#2A3756"></path>
                <path d="M115.744785,60.5105855 L76.2183823,50.8234887 C76.2183823,50.8234887 68.1906242,75.8615855 88.0843984,77.0325048 C107.97885,78.2034242 115.744785,60.5105855 115.744785,60.5105855" id="Fill-35" fill="#E89CAE"></path>
                <path d="M104.947771,59.2549887 C99.2632065,59.6082629 93.6717871,60.9837629 90.0076258,71.7191661 C84.7826903,86.5031661 81.0880452,112.272198 80.9522226,161.166295 L128.574803,151.79894 C123.795271,126.737473 124.515368,68.5383435 115.744819,60.5105855 C112.098948,58.9765694 109.781497,58.9552306 104.947771,59.2549887" id="Fill-37" fill="#E89CAE"></path>
                <polygon id="Fill-39" fill="#101820" points="164.53981 132.510881 160.811632 120.54359 169.560503 88.019671 173.288681 99.9869613"></polygon>
                <polygon id="Fill-41" fill="#FCF7F1" points="164.53981 132.510881 156.833487 120.240106 165.582358 87.7161871 173.288681 99.9869613"></polygon>
                <polygon id="Fill-43" fill="#FFFFFF" points="150.550185 93.8705419 151.185944 91.5077032 172.009137 99.6032032"></polygon>
                <polygon id="Fill-45" fill="#FFFFFF" points="152.147168 93.0727113 152.767684 90.7657597 172.572716 99.77205"></polygon>
                <polygon id="Fill-47" fill="#101820" points="162.698076 131.8338 141.360044 125.560558 150.108915 93.0369774 170.731253 99.2197839"></polygon>
                <polygon id="Fill-49" fill="#101820" points="164.53981 132.510881 161.982213 131.743026 170.731084 99.2197839 173.288681 99.9869613"></polygon>
                <path d="M101.411811,71.5686097 C109.217376,71.6861419 112.165844,85.5149806 106.06636,120.132126 L134.633473,114.581013 L137.296408,125.880029 C137.296408,125.880029 98.9598919,140.515335 92.5620048,128.598513 C86.1641177,116.681352 87.01665,71.3575935 101.411811,71.5686097" id="Fill-51" fill="#E89CAE"></path>
                <polygon id="Fill-53" fill="#FFAE94" points="134.633473 115.72426 141.77144 115.077663 142.786892 119.713244 136.769376 122.065244"></polygon>
                <path d="M144.541069,108.905085 C140.543618,111.535505 138.627198,115.683005 140.261811,118.168118 C140.737021,118.891602 141.463553,119.392892 142.35165,119.677069 C143.237376,119.958876 146.194989,117.513053 147.37336,116.358392 C147.988118,115.757182 148.728876,115.186456 149.570231,114.690585 C151.372844,113.629408 153.244553,113.138279 154.709473,113.229731 C155.488505,111.551085 155.561327,109.887005 154.742327,108.642247 C153.10636,106.156795 148.537505,106.274327 144.541069,108.905085" id="Fill-55" fill="#FFAE94"></path>
            </g>
        </g>
    </g>
</svg>